<?xml version="1.0" encoding="iso-8859-1"?>
<!-- Generator: Adobe Illustrator 19.0.0, SVG Export Plug-In . SVG Version: 6.00 Build 0)  -->
<svg version="1.1" id="Capa_1" xmlns="http://www.w3.org/2000/svg" xmlns:xlink="http://www.w3.org/1999/xlink" x="0px" y="0px"
	 viewBox="0 0 500.688 500.688" style="enable-background:new 0 0 500.688 500.688;" xml:space="preserve">
<g>
	<g>
		<g>
			<path d="M484.016,253.533l16.672-44.557l-2.344-0.83V2.344h-37.632l-72.641,166.761l-2.623-0.929l-2.085,5.575
				c-2.233-1.928-4.817-3.466-7.691-4.495l-7.583-2.716c-1.973-24.698-22.956-44.196-48.489-44.196
				c-14.508,0-27.902,6.175-37.178,17.034c-2.581-0.674-5.288-1.034-8.078-1.034h-48c-2.79,0-5.496,0.361-8.078,1.034
				c-9.276-10.859-22.67-17.034-37.178-17.034c-25.533,0-46.516,19.498-48.489,44.196l-7.583,2.716
				c-2.871,1.029-5.456,2.566-7.69,4.494l-2.086-5.574l-2.623,0.929L39.976,2.344H2.344v205.802L0,208.976l16.676,44.568
				l-9.22,22.672c-3.392,8.336-5.112,17.136-5.112,26.128c0,8.992,1.72,17.784,5.112,26.128l24.265,59.691
				c-12.439,4.39-21.377,16.256-21.377,30.181v48c0,17.648,14.352,32,32,32c9.551,0,18.131-4.211,23.999-10.867
				c5.868,6.657,14.449,10.867,24.001,10.867c9.551,0,18.131-4.211,23.999-10.867c5.868,6.657,14.449,10.867,24.001,10.867
				c9.551,0,18.131-4.211,23.999-10.867c5.868,6.657,14.449,10.867,24.001,10.867c17.648,0,32-14.36,32-32v-16h64v16
				c0,17.648,14.352,32,32,32c9.551,0,18.131-4.211,23.999-10.867c5.868,6.657,14.449,10.867,24.001,10.867
				c9.551,0,18.131-4.211,23.999-10.867c5.868,6.657,14.449,10.867,24.001,10.867c9.551,0,18.131-4.211,23.999-10.867
				c5.868,6.657,14.449,10.867,24.001,10.867c17.648,0,32-14.36,32-32v-48c0-13.925-8.938-25.791-21.377-30.181l24.265-59.691
				c3.392-8.336,5.112-17.128,5.112-26.128s-1.72-17.792-5.104-26.128L484.016,253.533z M471.192,18.344h11.152v184.139
				l-13.32-4.715l-5.336,15.088L480,218.624l-8.064,21.552l-85.072-30.12l8.064-21.552l52.784,18.696l5.344-15.088l-49.862-17.653
				L471.192,18.344z M418.344,355.356c-2.558-0.66-5.238-1.012-8-1.012c-5.827,0-11.29,1.572-16,4.304v-4.304
				c0-17.648-14.352-32-32-32s-32,14.352-32,32v4.304c-4.71-2.731-10.173-4.304-16-4.304c0-35.288-28.712-64-64-64
				c-35.288,0-64,28.712-64,64c-5.827,0-11.29,1.572-16,4.304v-4.304c0-17.648-14.352-32-32-32s-32,14.352-32,32v4.304
				c-4.71-2.731-10.173-4.304-16-4.304c-2.762,0-5.442,0.352-8,1.012v-81.012h336V355.356z M282.344,386.344v3.767
				c-8.812,7.902-20.089,12.225-32,12.225c-11.908,0-23.188-4.327-32-12.225v-3.767c0-11.734-6.349-22.005-15.789-27.575
				c-0.134-1.474-0.211-2.956-0.211-4.425c0-26.472,21.528-48,48-48s48,21.528,48,48c0,1.466-0.077,2.948-0.211,4.425
				C288.693,364.339,282.344,374.61,282.344,386.344z M322.992,258.344H177.696c-3.079-19.016-16.933-35.164-35.792-40.712
				l-6.479-1.91c2.044-0.179,4.102-0.618,6.119-1.338l12.161-4.355c8.084,5.447,17.503,8.315,27.375,8.315
				c14.561,0,28.083-6.41,37.182-17.036c2.583,0.674,5.291,1.036,8.082,1.036h48c2.792,0,5.501-0.361,8.085-1.036
				c9.098,10.628,22.62,17.036,37.179,17.036c9.869,0,19.285-2.867,27.368-8.317l12.168,4.357c2.018,0.718,4.062,1.156,6.099,1.336
				l-6.467,1.904C339.925,223.179,326.071,239.328,322.992,258.344z M28.752,240.176l-8.064-21.552l85.072-30.12l8.056,21.544
				L28.752,240.176z M374.936,188.52c0.888,1.904,0.976,4.024,0.248,5.992c-1.552,4.192-6.32,6.36-10.64,4.808l-30.56-10.944
				c-2.088-0.752-3.744-2.248-4.664-4.216c-0.888-1.904-0.976-4.024-0.248-5.992c1.208-3.272,4.384-5.304,7.768-5.304
				c0.952,0,1.928,0.16,2.872,0.496l30.56,10.944C372.36,185.056,374.016,186.552,374.936,188.52z M319.6,138.344
				c14.418,0,26.674,9.204,30.991,21.93l-5.479-1.962c-12.552-4.504-26.464,1.928-31.048,14.32c-2.224,6-1.952,12.496,0.752,18.296
				c2.202,4.72,5.816,8.499,10.34,10.95c-1.816,0.303-3.668,0.466-5.548,0.466c-8.72,0-16.87-3.41-22.867-9.172
				c5.921-5.81,9.603-13.895,9.603-22.828c0-8.938-3.685-17.026-9.612-22.837C302.802,141.637,310.896,138.344,319.6,138.344z
				 M274.344,154.344c8.824,0,16,7.176,16,16c0,8.824-7.176,16-16,16h-48c-8.824,0-16-7.176-16-16c0-8.824,7.176-16,16-16H274.344z
				 M181.088,138.344c8.703,0,16.797,3.298,22.866,9.164c-5.925,5.811-9.61,13.898-9.61,22.836c0,8.935,3.683,17.022,9.607,22.832
				c-5.996,5.764-14.149,9.176-22.871,9.176c-1.883,0-3.739-0.164-5.56-0.468c4.526-2.449,8.148-6.226,10.352-10.956
				c2.704-5.8,2.968-12.296,0.752-18.296c-4.584-12.384-18.52-18.816-31.048-14.32l-5.479,1.962
				C154.414,147.548,166.67,138.344,181.088,138.344z M125.752,188.52c0.912-1.968,2.576-3.464,4.664-4.216l30.56-10.944
				c0.944-0.336,1.92-0.496,2.872-0.496c3.384,0,6.56,2.032,7.768,5.304c0.728,1.968,0.632,4.096-0.248,5.992
				c-0.912,1.968-2.576,3.464-4.664,4.216l-30.56,10.944c-4.312,1.544-9.096-0.616-10.64-4.808
				C124.776,192.544,124.872,190.416,125.752,188.52z M18.344,18.344h11.152l67.998,156.115l-79.15,28.022V18.344z M18.344,302.344
				c0-6.92,1.328-13.688,3.936-20.104l10.831-26.634l82.246-29.124l22.027,6.494c12.074,3.556,21.151,13.454,24.008,25.368H66.344
				v106.865c-4.974,5.641-8,13.039-8,21.135v4.304c-3.011-1.746-6.329-3.017-9.855-3.706l-26.217-64.494
				C19.672,316.032,18.344,309.264,18.344,302.344z M42.344,482.344c-8.824,0-16-7.176-16-16v-48c0-8.824,7.176-16,16-16
				s16,7.176,16,16v48C58.344,475.168,51.168,482.344,42.344,482.344z M90.344,482.344c-8.824,0-16-7.176-16-16v-48v-32
				c0-8.824,7.176-16,16-16s16,7.176,16,16v80C106.344,475.168,99.168,482.344,90.344,482.344z M138.344,482.344
				c-8.824,0-16-7.176-16-16v-80v-32c0-8.824,7.176-16,16-16c8.824,0,16,7.176,16,16v32v80
				C154.344,475.168,147.168,482.344,138.344,482.344z M202.344,466.344c0,8.824-7.176,16-16,16c-8.824,0-16-7.176-16-16v-80
				c0-8.824,7.176-16,16-16c8.824,0,16,7.176,16,16V466.344z M218.344,434.344v-24.56c9.63,5.577,20.597,8.56,32,8.56
				c11.403,0,22.369-2.985,32-8.565v24.565H218.344z M314.344,482.344c-8.824,0-16-7.176-16-16v-80c0-8.824,7.176-16,16-16
				c8.824,0,16,7.176,16,16v80C330.344,475.168,323.168,482.344,314.344,482.344z M362.344,482.344c-8.824,0-16-7.176-16-16v-80v-32
				c0-8.824,7.176-16,16-16c8.824,0,16,7.176,16,16v32v80C378.344,475.168,371.168,482.344,362.344,482.344z M410.344,482.344
				c-8.824,0-16-7.176-16-16v-80c0-8.824,7.176-16,16-16c8.824,0,16,7.176,16,16v32v48
				C426.344,475.168,419.168,482.344,410.344,482.344z M474.344,418.344v48c0,8.824-7.176,16-16,16c-8.824,0-16-7.176-16-16v-48
				c0-8.824,7.176-16,16-16C467.168,402.344,474.344,409.52,474.344,418.344z M478.408,322.448l-26.218,64.496
				c-3.523,0.689-6.838,1.959-9.846,3.704v-4.304c0-8.096-3.026-15.493-8-21.135V258.344h-95.048
				c2.856-11.916,11.932-21.819,24-25.368l22.025-6.493l82.266,29.128l10.829,26.63c2.6,6.416,3.928,13.184,3.928,20.104
				S481.016,316.032,478.408,322.448z"/>
			<path d="M243.944,338.344h12.8c0.76,0,1.6,0.944,1.6,2.288h16c0-9.527-7.044-17.36-16-18.204v-8.084h-16v8.084
				c-8.956,0.844-16,8.685-16,18.204v3.424c0,10.088,7.896,18.288,17.6,18.288h12.8c0.76,0,1.6,0.944,1.6,2.288v3.424
				c0,1.344-0.84,2.288-1.6,2.288h-12.8c-0.76,0-1.6-0.944-1.6-2.288h-16c0,9.527,7.044,17.36,16,18.204v8.084h16v-8.084
				c8.956-0.844,16-8.685,16-18.204v-3.424c0-10.088-7.896-18.288-17.6-18.288h-12.8c-0.76,0-1.6-0.944-1.6-2.288v-3.424
				C242.344,339.28,243.184,338.344,243.944,338.344z"/>
		</g>
	</g>
</g>
<g>
</g>
<g>
</g>
<g>
</g>
<g>
</g>
<g>
</g>
<g>
</g>
<g>
</g>
<g>
</g>
<g>
</g>
<g>
</g>
<g>
</g>
<g>
</g>
<g>
</g>
<g>
</g>
<g>
</g>
</svg>
