<?xml version="1.0" encoding="iso-8859-1"?>
<!-- Generator: Adobe Illustrator 19.0.0, SVG Export Plug-In . SVG Version: 6.00 Build 0)  -->
<svg version="1.1" id="Capa_1" xmlns="http://www.w3.org/2000/svg" xmlns:xlink="http://www.w3.org/1999/xlink" x="0px" y="0px"
	 viewBox="0 0 512.001 512.001" style="enable-background:new 0 0 512.001 512.001;" xml:space="preserve">
<g>
	<g>
		<g>
			<path d="M486.401,59.734H341.334v-51.2c0.001-2.263-0.898-4.434-2.499-6.035c-1.6-1.6-3.771-2.499-6.035-2.499h-34.133
				c-2.263-0.001-4.434,0.898-6.035,2.499c-1.6,1.6-2.499,3.771-2.499,6.035v51.2H145.068c-14.132,0.015-25.585,11.468-25.6,25.6
				v8.533c0.015,14.132,11.468,25.585,25.6,25.6h1.202l13.217,86.635C69.324,214.467,0.001,262.227,0.001,319.717
				c-0.022,13.571,5.763,26.504,15.895,35.533C6.021,361.477,0.022,372.326,0.001,384v17.067c0.004,8.896,3.496,17.435,9.727,23.784
				c-6.156,5.248-9.71,12.926-9.727,21.016v19.2C-0.154,490.788,20.538,511.783,46.259,512h357.208
				c12.676,0.065,23.467-9.209,25.308-21.75l56.422-370.783h1.203c14.132-0.015,25.585-11.468,25.6-25.6v-8.533
				C511.985,71.201,500.533,59.749,486.401,59.734z M307.201,17.067h17.067v42.667h-17.067V17.067z M358.401,465.067
				c0.165,16.3-12.892,29.659-29.192,29.867H213.334H46.259c-16.299-0.208-29.357-13.567-29.192-29.867v-19.2
				c-0.086-5.795,4.534-10.566,10.329-10.667h320.675c5.795,0.1,10.415,4.872,10.329,10.667V465.067z M358.401,401.067
				c-0.011,9.421-7.646,17.056-17.067,17.067h-307.2c-9.421-0.011-17.056-7.646-17.067-17.067V384
				c0.011-9.421,7.646-17.056,17.067-17.067h295.075h12.125c9.421,0.011,17.056,7.646,17.067,17.067V401.067z M329.209,349.867
				H46.259c-16.377-0.287-29.433-13.772-29.192-30.15c0-53.958,76.563-97.85,170.667-97.85s170.667,43.892,170.667,97.85
				C358.642,336.095,345.586,349.58,329.209,349.867z M163.534,119.467h204.549c1.391,17.206-1.13,65.835-63.159,110.569
				c-36.669-17.117-76.726-25.743-117.19-25.235c-3.744,0-7.455,0.087-11.146,0.22L163.534,119.467z M411.909,487.684
				c-0.618,4.18-4.216,7.27-8.442,7.25h-38.605c6.877-8.433,10.623-18.985,10.605-29.867v-19.2
				c-0.017-8.09-3.571-15.767-9.727-21.016c6.231-6.349,9.723-14.889,9.727-23.784V384c-0.021-11.674-6.02-22.524-15.895-28.75
				c10.132-9.029,15.917-21.962,15.895-35.533c0-31.388-20.682-59.864-54.118-80.624c61.19-47.214,65.384-98.028,63.875-119.626
				h39.007c-9.983,41.252-40.982,188.923,1.036,280.421L411.909,487.684z M430.657,364.467c-24.147-89.652,4.01-215.777,11.183-245
				h26.094L430.657,364.467z M494.934,93.867c-0.003,4.711-3.822,8.53-8.533,8.533H145.068c-4.711-0.005-8.529-3.822-8.533-8.533
				v-8.533c0.005-4.711,3.822-8.529,8.533-8.533h341.333c4.711,0.003,8.53,3.822,8.533,8.533V93.867z"/>
			<path d="M125.501,249.967c-3.341-3.281-8.701-3.256-12.012,0.054s-3.335,8.671-0.054,12.012l8.533,8.533
				c3.341,3.281,8.701,3.256,12.012-0.054s3.335-8.671,0.054-12.012L125.501,249.967z"/>
			<path d="M113.434,292.634l-8.533,8.533c-2.44,2.44-3.169,6.11-1.849,9.298c1.32,3.188,4.431,5.267,7.882,5.268
				c2.264,0.003,4.435-0.897,6.033-2.5l8.533-8.533c3.281-3.341,3.256-8.701-0.054-12.012
				C122.135,289.378,116.775,289.353,113.434,292.634z"/>
			<path d="M164.634,292.634l-8.533,8.533c-2.44,2.44-3.169,6.11-1.849,9.298s4.431,5.267,7.882,5.268
				c2.264,0.003,4.435-0.897,6.033-2.5l8.533-8.533c3.281-3.341,3.256-8.701-0.054-12.012
				C173.335,289.378,167.975,289.353,164.634,292.634z"/>
			<path d="M215.834,292.634l-8.533,8.533c-2.44,2.44-3.169,6.11-1.849,9.298s4.431,5.267,7.882,5.268
				c2.264,0.003,4.435-0.897,6.033-2.5l8.533-8.533c3.281-3.341,3.256-8.701-0.054-12.012
				C224.535,289.378,219.175,289.353,215.834,292.634z"/>
			<path d="M275.568,292.634l-8.533,8.533c-1.601,1.6-2.5,3.77-2.5,6.033s0.899,4.433,2.5,6.033c1.6,1.601,3.77,2.5,6.033,2.5
				s4.433-0.899,6.033-2.5l8.533-8.533c3.296-3.338,3.279-8.711-0.038-12.029C284.279,289.354,278.906,289.337,275.568,292.634z"/>
			<path d="M168.167,241.434c-3.341-3.281-8.701-3.256-12.012,0.054c-3.311,3.311-3.335,8.671-0.054,12.012l8.533,8.533
				c3.341,3.281,8.701,3.256,12.012-0.054s3.335-8.671,0.054-12.012L168.167,241.434z"/>
			<path d="M219.367,241.434c-3.341-3.281-8.701-3.256-12.012,0.054c-3.311,3.311-3.335,8.671-0.054,12.012l8.533,8.533
				c3.341,3.281,8.701,3.256,12.012-0.054s3.335-8.671,0.054-12.012L219.367,241.434z"/>
			<path d="M270.567,258.501l-8.533-8.533c-3.341-3.281-8.701-3.256-12.012,0.054s-3.335,8.671-0.054,12.012l8.533,8.533
				c3.341,3.281,8.701,3.256,12.012-0.054S273.848,261.841,270.567,258.501z"/>
			<path d="M82.834,267.034c-3.341-3.281-8.701-3.256-12.012,0.054s-3.335,8.671-0.054,12.012l8.533,8.533
				c3.341,3.281,8.701,3.256,12.012-0.054s3.335-8.671,0.054-12.012L82.834,267.034z"/>
		</g>
	</g>
</g>
<g>
</g>
<g>
</g>
<g>
</g>
<g>
</g>
<g>
</g>
<g>
</g>
<g>
</g>
<g>
</g>
<g>
</g>
<g>
</g>
<g>
</g>
<g>
</g>
<g>
</g>
<g>
</g>
<g>
</g>
</svg>
