<?xml version="1.0" encoding="iso-8859-1"?>
<!-- Generator: Adobe Illustrator 19.0.0, SVG Export Plug-In . SVG Version: 6.00 Build 0)  -->
<svg version="1.1" id="Layer_1" xmlns="http://www.w3.org/2000/svg" xmlns:xlink="http://www.w3.org/1999/xlink" x="0px" y="0px"
	 viewBox="0 0 512 512" style="enable-background:new 0 0 512 512;" xml:space="preserve">
<g>
	<g>
		<path d="M458.667,0H53.333C23.936,0,0,23.936,0,53.333v405.333C0,488.064,23.936,512,53.333,512h405.333
			C488.064,512,512,488.064,512,458.667V53.333C512,23.936,488.064,0,458.667,0z M490.667,458.667c0,17.643-14.357,32-32,32H53.333
			c-17.643,0-32-14.357-32-32V53.333c0-17.643,14.357-32,32-32h405.333c17.643,0,32,14.357,32,32V458.667z"/>
	</g>
</g>
<g>
	<g>
		<path d="M245.333,298.667H74.667c-5.888,0-10.667,4.779-10.667,10.667v149.333c0,5.888,4.779,10.667,10.667,10.667h170.667
			c5.888,0,10.667-4.779,10.667-10.667V309.333C256,303.445,251.221,298.667,245.333,298.667z M234.667,448H85.333V320h149.333V448z
			"/>
	</g>
</g>
<g>
	<g>
		<path d="M207.019,342.251c-3.797-1.685-8.363-1.003-11.477,1.813c-8.875,7.979-22.208,18.603-35.541,18.603
			s-26.667-10.624-35.52-18.603c-3.115-2.816-7.637-3.499-11.477-1.813c-3.861,1.728-6.336,5.547-6.336,9.749v64
			c0,5.888,4.779,10.667,10.667,10.667h85.333c5.888,0,10.667-4.779,10.667-10.667v-64
			C213.333,347.797,210.859,343.979,207.019,342.251z M192,405.333h-64v-31.659c9.28,5.803,20.139,10.325,32,10.325
			s22.72-4.523,32-10.325V405.333z"/>
	</g>
</g>
<g>
	<g>
		<path d="M266.667,298.667H53.333c-5.888,0-10.667,4.779-10.667,10.667S47.445,320,53.333,320h213.333
			c5.888,0,10.667-4.779,10.667-10.667S272.555,298.667,266.667,298.667z"/>
	</g>
</g>
<g>
	<g>
		<path d="M330.667,362.667h-21.333c-5.888,0-10.667,4.779-10.667,10.667c0,5.888,4.779,10.667,10.667,10.667h21.333
			c5.888,0,10.667-4.779,10.667-10.667C341.333,367.445,336.555,362.667,330.667,362.667z"/>
	</g>
</g>
<g>
	<g>
		<path d="M394.667,362.667h-21.333c-5.888,0-10.667,4.779-10.667,10.667c0,5.888,4.779,10.667,10.667,10.667h21.333
			c5.888,0,10.667-4.779,10.667-10.667C405.333,367.445,400.555,362.667,394.667,362.667z"/>
	</g>
</g>
<g>
	<g>
		<path d="M330.667,405.333h-21.333c-5.888,0-10.667,4.779-10.667,10.667c0,5.888,4.779,10.667,10.667,10.667h21.333
			c5.888,0,10.667-4.779,10.667-10.667C341.333,410.112,336.555,405.333,330.667,405.333z"/>
	</g>
</g>
<g>
	<g>
		<path d="M394.667,405.333h-21.333c-5.888,0-10.667,4.779-10.667,10.667c0,5.888,4.779,10.667,10.667,10.667h21.333
			c5.888,0,10.667-4.779,10.667-10.667C405.333,410.112,400.555,405.333,394.667,405.333z"/>
	</g>
</g>
<g>
	<g>
		<path d="M330.667,448h-21.333c-5.888,0-10.667,4.779-10.667,10.667s4.779,10.667,10.667,10.667h21.333
			c5.888,0,10.667-4.779,10.667-10.667S336.555,448,330.667,448z"/>
	</g>
</g>
<g>
	<g>
		<path d="M394.667,448h-21.333c-5.888,0-10.667,4.779-10.667,10.667s4.779,10.667,10.667,10.667h21.333
			c5.888,0,10.667-4.779,10.667-10.667S400.555,448,394.667,448z"/>
	</g>
</g>
<g>
	<g>
		<path d="M458.667,362.667h-21.333c-5.888,0-10.667,4.779-10.667,10.667c0,5.888,4.779,10.667,10.667,10.667h21.333
			c5.888,0,10.667-4.779,10.667-10.667C469.333,367.445,464.555,362.667,458.667,362.667z"/>
	</g>
</g>
<g>
	<g>
		<path d="M458.667,405.333h-21.333c-5.888,0-10.667,4.779-10.667,10.667c0,5.888,4.779,10.667,10.667,10.667h21.333
			c5.888,0,10.667-4.779,10.667-10.667C469.333,410.112,464.555,405.333,458.667,405.333z"/>
	</g>
</g>
<g>
	<g>
		<path d="M458.667,448h-21.333c-5.888,0-10.667,4.779-10.667,10.667s4.779,10.667,10.667,10.667h21.333
			c5.888,0,10.667-4.779,10.667-10.667S464.555,448,458.667,448z"/>
	</g>
</g>
<g>
	<g>
		<path d="M458.667,298.667H309.333c-5.888,0-10.667,4.779-10.667,10.667S303.445,320,309.333,320h149.333
			c5.888,0,10.667-4.779,10.667-10.667S464.555,298.667,458.667,298.667z"/>
	</g>
</g>
<g>
	<g>
		<path d="M384,277.333c-17.643,0-32,14.357-32,32c0,17.643,14.357,32,32,32c17.643,0,32-14.357,32-32
			C416,291.691,401.643,277.333,384,277.333z M384,320c-5.888,0-10.667-4.779-10.667-10.667s4.779-10.667,10.667-10.667
			c5.888,0,10.667,4.779,10.667,10.667S389.888,320,384,320z"/>
	</g>
</g>
<g>
	<g>
		<path d="M501.333,234.667H10.667C4.779,234.667,0,239.445,0,245.333S4.779,256,10.667,256h490.667
			c5.888,0,10.667-4.779,10.667-10.667S507.221,234.667,501.333,234.667z"/>
	</g>
</g>
<g>
	<g>
		<path d="M169.899,177.387L127.232,70.72c-3.264-8.107-16.576-8.107-19.819,0L64.747,177.387
			c-2.176,5.461,0.491,11.669,5.952,13.867c5.397,2.176,11.669-0.469,13.867-5.952l32.768-81.92l32.768,81.92
			c1.664,4.16,5.675,6.699,9.899,6.699c1.323,0,2.667-0.235,3.947-0.747C169.429,189.056,172.096,182.848,169.899,177.387z"/>
	</g>
</g>
<g>
	<g>
		<path d="M149.333,149.333h-64c-5.888,0-10.667,4.779-10.667,10.667s4.779,10.667,10.667,10.667h64
			c5.888,0,10.667-4.779,10.667-10.667S155.221,149.333,149.333,149.333z"/>
	</g>
</g>
<g>
	<g>
		<path d="M288,64h-85.333C196.779,64,192,68.779,192,74.667s4.779,10.667,10.667,10.667H288c5.888,0,10.667-4.779,10.667-10.667
			S293.888,64,288,64z"/>
	</g>
</g>
<g>
	<g>
		<path d="M245.333,64c-5.888,0-10.667,4.779-10.667,10.667v106.667c0,5.888,4.779,10.667,10.667,10.667S256,187.221,256,181.333
			V74.667C256,68.779,251.221,64,245.333,64z"/>
	</g>
</g>
<g>
	<g>
		<path d="M440.427,64.469c-4.459-1.387-9.365,0.363-11.968,4.288l-33.792,50.688l-33.792-50.709
			c-2.603-3.904-7.488-5.675-11.968-4.288c-4.501,1.365-7.573,5.525-7.573,10.219v106.667c0,5.888,4.779,10.667,10.667,10.667
			c5.888,0,10.667-4.779,10.667-10.667v-71.445l23.125,34.688c3.968,5.931,13.781,5.931,17.749,0l23.125-34.688v71.445
			c0,5.888,4.779,10.667,10.667,10.667c5.888,0,10.667-4.779,10.667-10.667V74.667C448,69.973,444.928,65.813,440.427,64.469z"/>
	</g>
</g>
<g>
</g>
<g>
</g>
<g>
</g>
<g>
</g>
<g>
</g>
<g>
</g>
<g>
</g>
<g>
</g>
<g>
</g>
<g>
</g>
<g>
</g>
<g>
</g>
<g>
</g>
<g>
</g>
<g>
</g>
</svg>
