<svg xmlns="http://www.w3.org/2000/svg" width="67" height="95" viewBox="0 0 67 95">
  <g fill="none">
    <path fill="#FFF" d="M61.82 55.79C60.46 52.19 58.7 49.99 56.73 49.42L56.57 49.35C54.17 48 49.41 47 44.62 46.84L34.24 61.84 52.71 87.84 52.71 69.61 54.25 69.61 54.25 87.61 62.82 84.35C65.29 79.97 65.22 64.75 61.82 55.77L61.82 55.79zM53.7 62.74L43.75 62.74 43.75 61.19 53.7 61.19 53.7 62.74zM8 49.94L8 50C6.08 51 4.44 54 3.27 58.46 1.22 66.35.89 80.14 3.27 84.4L12.41 87.88 12.41 69.61 13.95 69.61 13.95 92.89 43.31 92.89 30.11 74.31 11.65 48.31C10.3586786 48.6677814 9.12832508 49.2172269 8 49.94M52.71 92.89L52.71 90.51 21.71 46.86C18.8600487 46.9050638 16.0220869 47.2401242 13.24 47.86L45.24 92.86 52.71 92.89z"/>
    <rect width="9.95" height="1.54" x="43.75" y="61.19" fill="#4A5A67"/>
    <path fill="#FFF" d="M40.1,45.9 L40.1,43.15 C35.8773327,46.1686245 30.2026673,46.1686245 25.98,43.15 L25.98,45.89 L33.45,51.66 L40.1,45.9 Z"/>
    <path fill="#FFF" d="M33,43.87 C36.1,43.87 41.75,42.5 44.86,33.36 L44.86,33.22 L45.03,32.69 L45.26,31.97 L45.92,32.08 L46.13,32.08 C47.06,32.08 47.85,30.99 47.85,29.69 C47.8971208,28.8057409 47.4803184,27.9607689 46.75,27.46 L46.28,27.2 L46.36,26.67 C46.58,25.19 46.73,23.61 46.83,21.95 C44.18,23.7 38.58,24.58 33,24.58 C27.42,24.58 21.92,23.7 19.19,22 C19.29,23.65 19.44,25.23 19.66,26.71 L19.74,27.24 L19.27,27.5 C18.5396816,28.0007689 18.1228792,28.8457409 18.17,29.73 C18.17,31.02 18.96,32.12 19.89,32.12 L20.1,32.12 L20.77,32 L21,32.74 L21.16,33.25 L21.16,33.4 C24.3,42.5 29.95,43.87 33,43.87 L33,43.87 Z M28.28,36.87 C29.8430808,37.09589 31.4206933,37.2061892 33,37.2 C34.5793211,37.2066267 36.1569658,37.0963252 37.72,36.87 C36.4827642,38.2017659 34.8070978,39.0431493 33,39.24 C31.1958863,39.047612 29.5208766,38.2136559 28.28,36.89 L28.28,36.87 Z M38.68,26.57 C39.2341133,26.57 39.733665,26.9037898 39.945715,27.4157237 C40.1577649,27.9276576 40.0405535,28.516919 39.6487363,28.9087363 C39.256919,29.3005535 38.6676576,29.4177649 38.1557237,29.205715 C37.6437898,28.993665 37.31,28.4941133 37.31,27.94 C37.31,27.1833699 37.9233699,26.57 38.68,26.57 L38.68,26.57 Z M30.88,32.88 L31.27,32.88 C31.27,33.42 31.97,33.88 32.79,33.88 C33.61,33.88 34.32,33.42 34.32,32.88 L35.09,32.88 C34.9247288,33.9929009 33.908112,34.7752538 32.79,34.65 C31.671888,34.7752538 30.6552712,33.9929009 30.49,32.88 L30.88,32.88 Z M27.28,26.57 C28.0366301,26.57 28.65,27.1833699 28.65,27.94 C28.65,28.6966301 28.0366301,29.31 27.28,29.31 C26.5233699,29.31 25.91,28.6966301 25.91,27.94 C25.91,27.1833699 26.5233699,26.57 27.28,26.57 L27.28,26.57 Z"/>
    <path fill="#4A5A67" d="M38.68 29.31C39.2341133 29.31 39.733665 28.9762102 39.945715 28.4642763 40.1577649 27.9523424 40.0405535 27.363081 39.6487363 26.9712637 39.256919 26.5794465 38.6676576 26.4622351 38.1557237 26.674285 37.6437898 26.886335 37.31 27.3858867 37.31 27.94 37.31 28.6966301 37.9233699 29.31 38.68 29.31M27.29 29.31C28.0466301 29.31 28.66 28.6966301 28.66 27.94 28.66 27.1833699 28.0466301 26.57 27.29 26.57 26.5333699 26.57 25.92 27.1833699 25.92 27.94 25.92 28.6966301 26.5333699 29.31 27.29 29.31M33 39.24C34.8043676 39.0484817 36.4796645 38.2143826 37.72 36.89 36.1569658 37.1163252 34.5793211 37.2266267 33 37.22 31.4206945 37.2261529 29.8430847 37.1158539 28.28 36.89 29.5208766 38.2136559 31.1958863 39.047612 33 39.24M32.8 34.66C33.918112 34.7852538 34.9347288 34.0029009 35.1 32.89L34.33 32.89C34.33 33.43 33.63 33.89 32.8 33.89 31.97 33.89 31.28 33.43 31.28 32.89L30.5 32.89C30.6652712 34.0029009 31.681888 34.7852538 32.8 34.66"/>
    <path fill="#FFF" d="M17.46 16.9L17.46 14.45 18.67 14.11C23.3106594 12.6371271 28.1334023 11.8159482 33 11.67 37.8833481 11.8119752 42.7231464 12.6331927 47.38 14.11L48.58 14.45 48.58 16.9C51.09 15.84 52.52 14.58 52.52 13.38 52.55 10 43.9 1.54 33 1.54 22.1 1.54 13.52 10 13.52 13.37 13.52 14.57 14.95 15.84 17.46 16.89M33 23C41.56 23 46.32 21.06 47 19.81 43.22 18.91 37.6 18.81 33 18.81 28.4 18.81 22.82 18.93 19 19.81 19.71 21.1 24.48 23 33 23"/>
    <path fill="#FFF" d="M19,18.28 C22.07,17.58 26.37,17.28 33,17.28 C39.63,17.28 44,17.58 47,18.28 L47,15.62 L46.92,15.62 C42.3885078,14.172117 37.6753818,13.3708856 32.92,13.24 C28.1646705,13.3714176 23.4516187,14.1726364 18.92,15.62 L18.84,15.62 L19,18.28 Z"/>
    <path fill="#4A5A67" d="M50.88,46 C49.76,45.79 48.57,45.63 47.35,45.51 L47.35,45.2 L41.64,45.2 L41.64,41.9 C43.8581393,39.611107 45.4940276,36.8228949 46.41,33.77 C48.2603088,33.3246702 49.5504577,31.6388756 49.41,29.76 C49.4574341,28.501549 48.9403456,27.2876747 48,26.45 C48.2701965,24.3963391 48.4370734,22.3304032 48.5,20.26 L48.59,18.56 C52.18,17.18 54.07,15.4 54.07,13.37 C54.09,9 44.35,0 33,0 C21.65,0 12,9 12,13.37 C12,15.37 13.89,17.18 17.48,18.56 L17.48,20.29 C17.6526739,22.3604172 17.8195518,24.4263659 18.09,26.48 C17.1483248,27.3021528 16.6207144,28.5002681 16.65,29.75 C16.5095423,31.6288756 17.7996912,33.3146702 19.65,33.67 C20.5623632,36.8041312 22.1912139,39.5851794 24.4,41.87 L24.4,45.19 L18.72,45.19 L18.72,45.51 C16.5478123,45.6854387 14.3938244,46.0399771 12.28,46.57 L11.77,46.71 L10.7,47 C9.45710129,47.3828936 8.27269548,47.934719 7.18,48.64 C4.86,49.93 3,53.09 1.74,58.05 C-0.71,67.48 -0.54,81.29 2.08,85.42 L2.22,85.64 L12.35,89.5 L12.35,94.44 L54.56,94.44 L54.56,89.16 L63.86,85.62 L64,85.4 C64.5167688,84.5056915 64.8944258,83.5379454 65.12,82.53 C65.8368908,77.1763091 66.1396628,73.2707274 66.0283158,70.8132547 C65.6805319,63.1375204 63.4666657,55.8962089 62.314616,52.9408455 C60.8554837,49.1977204 57.0439451,46.8841053 50.88,46 Z M43.32,92.84 L13.94,92.84 L13.94,69.61 L12.4,69.61 L12.4,87.86 L3.26,84.38 C0.85,80.11 1.18,66.33 3.26,58.44 C4.4,53.94 6,51 8,50 L8.07,50 C9.18963371,49.2834341 10.4096595,48.7374557 11.69,48.38 L30.15,74.38 L43.32,92.84 Z M21.72,46.84 L52.72,90.49 L52.72,92.87 L45.2,92.87 L13.2,47.87 C15.9820869,47.2501242 18.8200487,46.9150638 21.67,46.87 L21.72,46.84 Z M25.94,45.87 L25.94,43.14 C30.1626673,46.1586245 35.8373327,46.1586245 40.06,43.14 L40.06,45.9 L33.42,51.64 L25.94,45.87 Z M21.15,33.22 L21,32.71 L20.76,32 L20.09,32.12 L19.88,32.12 C18.95,32.12 18.16,31.03 18.16,29.73 C18.1128792,28.8457409 18.5296816,28.0007689 19.26,27.5 L19.73,27.24 L19.65,26.71 C19.44,25.23 19.28,23.66 19.18,22 C21.92,23.7 27.49,24.58 33.03,24.58 C38.57,24.58 44.18,23.7 46.9,22 C46.8,23.66 46.65,25.24 46.43,26.72 L46.35,27.25 L46.82,27.51 C47.5503184,28.0107689 47.9671208,28.8557409 47.92,29.74 C47.92,31.03 47.13,32.13 46.2,32.13 L45.99,32.13 L45.34,32 L45.11,32.72 L44.94,33.25 L44.94,33.39 C41.8,42.5 36.15,43.87 33,43.87 C29.85,43.87 24.3,42.5 21.19,33.36 L21.15,33.22 Z M33,1.54 C43.86,1.54 52.52,10.04 52.52,13.37 C52.52,14.57 51.09,15.84 48.58,16.89 L48.58,14.45 L47.38,14.11 C42.723177,12.6330661 37.8833609,11.8118456 33,11.67 C28.1199378,11.8121227 23.2834615,12.6333476 18.63,14.11 L17.42,14.45 L17.42,16.9 C14.91,15.84 13.48,14.58 13.48,13.38 C13.52,10 22.18,1.54 33,1.54 L33,1.54 Z M19,15.62 L19.08,15.62 C23.6114922,14.172117 28.3246182,13.3708856 33.08,13.24 C37.8353687,13.3710187 42.5484762,14.1722469 47.08,15.62 L47.16,15.62 L47.16,18.29 C44.09,17.59 39.79,17.29 33.16,17.29 C26.53,17.29 22.16,17.59 19.16,18.29 L19,15.62 Z M33,18.83 C37.56,18.83 43.18,18.95 47,19.83 C46.36,21.1 41.59,23 33,23 C24.41,23 19.68,21.06 19,19.81 C22.78,18.91 28.4,18.81 33,18.81 L33,18.83 Z M33.47,53.61 L41.47,46.68 L42.78,46.68 L33.23,60.48 L23.43,46.68 L24.43,46.68 L33.47,53.61 Z M54.21,87.61 L54.21,69.61 L52.71,69.61 L52.71,87.85 L34.24,61.85 L44.62,46.85 C49.41,47.04 54.17,48.03 56.57,49.36 L56.73,49.43 C58.73,50 60.46,52.2 61.82,55.8 C65.22,64.8 65.28,79.99 62.82,84.38 L54.21,87.61 Z"/>
  </g>
</svg>
