<svg xmlns="http://www.w3.org/2000/svg" width="36" height="44" viewBox="0 0 36 44">
  <path d="M27.572266,25.389544 L30.449219,27.733294 C30.454319,27.737994 30.459539,27.742494 30.464849,27.746964 L31.474614,28.569229 C31.895895,28.912992 32.392599,29.103336 32.898443,29.149307 C33.066933,29.164587 33.238427,29.164127 33.406255,29.147307 C33.573435,29.130477 33.74081,29.097777 33.902349,29.049647 C34.22636,28.953197 34.533425,28.79232 34.804693,28.573085 L34.806693,28.573085 C34.942483,28.463199 35.068635,28.33995 35.183646,28.200038 L35.183646,28.198038 L35.197316,28.182408 L35.201216,28.178508 L35.207116,28.172608 L35.214916,28.162808 L35.214916,28.160808 C35.559632,27.741485 35.752609,27.246565 35.7989,26.742839 L35.7989,26.740839 C35.84488,26.23646 35.74494,25.723286 35.505931,25.270136 C35.426261,25.118996 35.33106,24.975802 35.220775,24.840449 C35.11042,24.705414 34.984122,24.578288 34.84375,24.463762 L28.789062,19.530169 L28.566406,18.1747 C28.547026,18.060085 28.488326,17.955801 28.400391,17.879778 L25.238281,15.116106 C25.444625,14.568166 25.572266,13.982296 25.572266,13.3622 L25.572266,13.217669 C26.160382,12.962971 26.570763,12.385505 26.572266,11.719622 C26.572064,11.346927 26.439631,11.002037 26.224609,10.723528 L27.535156,7.5360281 C27.584766,7.4137878 27.584066,7.2768938 27.533156,7.1551688 L25.619141,2.5633719 C25.567949,2.4410951 25.470299,2.3441483 25.347656,2.2938406 L20.746094,0.4012625 C20.684268,0.375276 20.617846,0.3619917 20.550781,0.3622 C20.487011,0.36327 20.424026,0.376527 20.365234,0.401263 L15.773438,2.315325 C15.650795,2.365633 15.553145,2.4625794 15.501953,2.5848562 L13.609375,7.1883719 C13.559765,7.3106122 13.560465,7.4475062 13.611375,7.5692312 L14.923875,10.719622 C14.706224,10.999036 14.572516,11.346391 14.572313,11.721575 C14.573813,12.387586 14.983992,12.967013 15.572313,13.221575 L15.572313,13.3622 C15.572313,13.981438 15.698544,14.566844 15.904344,15.114153 L12.742235,17.879778 C12.655025,17.956108 12.597031,18.060351 12.578172,18.1747 L12.355516,19.528216 L7.601609,23.403216 L2.9628906,15.9247 C2.637747,15.4004 2.0351226,15.142294 1.4570312,15.233294 C1.2630241,15.263294 1.0727197,15.332224 0.8984375,15.440325 C0.1992889,15.873725 -0.0191851,16.806178 0.4140625,17.504778 L5.476562,25.668841 C5.468362,25.693461 5.454712,25.716281 5.447262,25.741111 L5.447262,25.743111 C5.399032,25.904297 5.366402,26.068473 5.349602,26.235299 L5.349602,26.237299 C5.332932,26.404125 5.330432,26.571777 5.345702,26.739252 C5.345819,26.740552 5.345584,26.741852 5.345702,26.743152 C5.361152,26.909998 5.393722,27.076718 5.441402,27.239246 C5.537352,27.568302 5.69872,27.884048 5.929684,28.165027 C5.934084,28.170327 5.938684,28.175537 5.943354,28.180657 L5.960934,28.200187 C6.881021,29.319487 8.546503,29.486027 9.669918,28.569327 L10.679684,27.747062 C10.692594,27.736612 10.704984,27.725532 10.716794,27.713862 L13.572263,25.389644 L13.572263,32.8623 C13.572291,33.138431 13.796132,33.362272 14.072263,33.3623 L15.572263,33.3623 L15.572263,43.8623 C15.572291,44.138431 15.796132,44.362272 16.072263,44.3623 L16.087893,44.3623 L20.072268,44.3623 L20.55469,44.3623 L21.072268,44.3623 L25.05469,44.3623 L25.07227,44.3623 C25.348401,44.362272 25.572242,44.138431 25.57227,43.8623 L25.57227,33.3623 L27.07227,33.3623 C27.348401,33.362272 27.572242,33.138431 27.57227,32.8623 L27.572266,25.389544 Z M20.558594,1.4051688 L24.777344,3.1395438 L26.53125,7.3485281 L25.572266,9.680559 L25.572266,9.3622 C25.572266,6.6009 23.333617,4.3622 20.572266,4.3622 C17.810914,4.3622 15.572266,6.6009 15.572266,9.3622 L15.572266,9.678606 L14.613281,7.377825 L16.347656,3.159075 L20.558594,1.4051688 Z M20.572266,5.3622 C20.825531,5.3622 21.070884,5.390401 21.310547,5.434466 C21.408127,5.452911 21.501114,5.481236 21.595703,5.506732 C21.714993,5.537917 21.832735,5.572612 21.947266,5.6141539 C22.096895,5.6703349 22.242981,5.7321381 22.382812,5.8055602 C22.406012,5.8172992 22.428232,5.8304942 22.451172,5.8426692 C23.299556,6.3103323 23.944932,7.0894128 24.277344,8.0243098 C23.486033,7.1449798 22.392067,6.5443932 21.15625,6.3993094 C20.965472,6.3756367 20.770401,6.3622 20.572266,6.3622 C20.374295,6.3622 20.180858,6.375666 19.990234,6.399309 C19.829575,6.418087 19.673235,6.449558 19.517578,6.483293 C19.499648,6.487413 19.480738,6.488733 19.462888,6.493063 C18.444859,6.7256594 17.547772,7.2689027 16.871091,8.0184536 C17.204233,7.0860625 17.846887,6.3093377 18.693356,5.8426724 C18.715786,5.8307664 18.737076,5.8170524 18.759766,5.8055634 C18.901378,5.7311092 19.051448,5.6689385 19.203125,5.6122 C19.312547,5.5727022 19.4253,5.5406985 19.539062,5.5106375 C19.63802,5.4836256 19.73564,5.4537403 19.837891,5.4344656 C20.076378,5.3908519 20.320327,5.3622 20.572266,5.3622 Z M20.572266,7.3622 C20.786302,7.3622 20.992484,7.392591 21.197266,7.4247 C22.049292,7.5842467 22.7749,8.0541956 23.361328,8.661028 C22.525222,9.024328 21.620811,9.3622 20.572266,9.3622 C19.5231,9.3622 18.618909,9.024428 17.783203,8.661028 C18.369738,8.0546807 19.095339,7.5843792 19.947266,7.4247 C20.152048,7.3925914 20.358229,7.3622 20.572266,7.3622 Z M24.572266,13.3622 C24.572266,15.5869 22.796914,17.3622 20.572266,17.3622 C18.347617,17.3622 16.572266,15.5869 16.572266,13.3622 L16.572266,12.694231 L16.572266,11.368059 L16.572266,11.362159 C16.572264,10.712848 16.741055,10.108497 17.013672,9.567237 C18.050059,10.077437 19.284173,10.360594 20.572266,10.362159 C21.860455,10.362159 23.094419,10.078772 24.130859,9.56919 C24.402991,10.110072 24.572267,10.713464 24.572266,11.362159 L24.572266,12.692237 L24.572266,13.3622 Z M18.921875,11.063372 C18.563045,11.063157 18.271919,11.352534 18.271484,11.709856 C18.270834,12.067941 18.562278,12.35851 18.921875,12.358294 C19.281472,12.35851 19.572916,12.067941 19.572266,11.709856 C19.571831,11.352534 19.280705,11.063157 18.921875,11.063372 Z M22.222656,11.063372 C21.863826,11.063157 21.572701,11.352534 21.572266,11.709856 C21.571616,12.067941 21.863059,12.358509 22.222656,12.358294 C22.58149,12.357436 22.871743,12.067182 22.871094,11.709856 C22.870661,11.353292 22.580724,11.064229 22.222656,11.063372 Z M22.056641,14.348528 C21.86523,14.356728 21.695313,14.473517 21.619141,14.649309 C21.400524,15.101609 21.011965,15.371966 20.572266,15.371966 C20.132566,15.371966 19.744008,15.101609 19.525391,14.649309 C19.438611,14.461698 19.245336,14.34682 19.039062,14.360247 C18.682451,14.383947 18.465111,14.763264 18.625,15.082903 C18.985543,15.828803 19.714437,16.371966 20.572266,16.371966 C21.430094,16.371966 22.158988,15.828803 22.519531,15.082903 C22.701094,14.741475 22.442991,14.331991 22.056641,14.348528 L22.056641,14.348528 Z M16.363281,16.041888 C16.544125,16.325236 16.749877,16.590319 16.982422,16.83095 L14.201172,19.260638 L13.414062,19.260638 L13.537109,18.514544 L16.363281,16.041888 Z M24.78125,16.041888 L27.607422,18.514544 L27.730469,19.260638 L26.943359,19.260638 L24.162109,16.83095 C24.394654,16.590319 24.600406,16.325236 24.78125,16.041888 Z M1.6113281,16.219622 L1.6132781,16.219622 C1.8052386,16.189622 2.0004881,16.267692 2.1132781,16.450091 L3.1484344,18.120012 L2.3320281,18.703997 L1.2636688,16.979388 C1.1130048,16.736488 1.1832728,16.440234 1.4257781,16.289934 C1.4863931,16.252934 1.5492209,16.228624 1.611325,16.219624 L1.6113281,16.219622 Z M17.751953,17.485247 C18.401615,17.930487 19.159468,18.226225 19.980469,18.323138 L18.720703,20.0497 L17.646484,17.577044 L17.751953,17.485247 Z M23.392578,17.485247 L23.5,17.578997 L22.423828,20.047747 L21.164062,18.323138 C21.985063,18.226228 22.742916,17.930487 23.392578,17.485247 Z M24.287109,18.266497 L26.427734,20.137591 C26.470574,20.174881 26.519444,20.204601 26.572266,20.225481 L26.572266,24.311419 C26.571471,24.327689 26.571471,24.343979 26.572266,24.360249 L26.572266,27.362202 L23.572266,27.362202 C23.572476,27.345252 23.571824,27.328302 23.570266,27.311422 C23.544166,27.056039 23.328932,26.861902 23.07222,26.862203 L21.07222,26.862203 L21.07222,19.895406 L22.12886,21.342672 C22.357326,21.655449 22.83932,21.600925 22.992142,21.245012 L24.287109,18.266497 Z M16.855469,18.268497 L18.152344,21.247013 C18.306641,21.600176 18.785614,21.653395 19.013672,21.342713 L20.072266,19.893494 L20.072266,26.862244 L18.072266,26.862244 C17.81075,26.862568 17.593652,27.064342 17.574219,27.325135 C17.573119,27.337475 17.572419,27.349855 17.572219,27.362245 L14.572219,27.362245 L14.572219,20.223573 C14.624899,20.203293 14.673769,20.174233 14.71675,20.137633 L16.855469,18.268497 Z M3.6757812,18.971575 L4.970703,21.059466 L4.154297,21.64345 L2.859375,19.553606 L3.6757812,18.971575 Z M13.035156,20.260638 L13.572266,20.260638 L13.572266,24.100481 L10.464844,26.629778 L8.560547,23.909075 L13.035156,20.260638 Z M27.572266,20.260638 L28.105469,20.260638 L32.582031,23.911028 L30.679688,26.631731 L27.572266,24.100481 L27.572266,20.260638 Z M5.5,21.911028 L6.820312,24.039934 L6.300781,24.463762 C6.209631,24.538132 6.135142,24.624405 6.056641,24.707903 L4.683594,22.495012 L5.5,21.911028 Z M16.029297,22.8622 C15.362631,22.89605 15.413412,23.896054 16.080077,23.8622 L18.080077,23.8622 C18.756238,23.8718 18.756238,22.852637 18.080077,22.8622 L16.080077,22.8622 C16.063157,22.86134 16.046217,22.86134 16.029297,22.8622 Z M23.029297,22.8622 C22.362631,22.89605 22.413412,23.896054 23.080077,23.8622 L25.080077,23.8622 C25.756238,23.8718 25.756238,22.852637 25.080077,22.8622 L23.080077,22.8622 C23.063157,22.86134 23.046217,22.86134 23.029297,22.8622 Z M7.785156,24.543841 L7.785156,24.545841 L9.6875,27.262638 L9.037109,27.791935 C8.419048,28.296294 7.563172,28.281424 6.970703,27.799735 L6.968703,27.797735 C6.884753,27.729255 6.804275,27.650524 6.732375,27.56336 L6.732375,27.56136 L6.726475,27.55156 L6.703035,27.52812 L6.703035,27.52612 C6.631035,27.43854 6.568581,27.346289 6.517488,27.25073 L6.517488,27.24873 C6.466538,27.15321 6.424798,27.054459 6.394441,26.953808 L6.394441,26.951808 C6.364401,26.851804 6.345851,26.749403 6.335851,26.64712 C6.335726,26.64582 6.335971,26.64452 6.335851,26.64322 C6.326051,26.540964 6.325851,26.43832 6.335851,26.336579 C6.335978,26.335279 6.33572,26.333979 6.335851,26.332679 C6.346091,26.230937 6.366681,26.130331 6.396401,26.031898 C6.426731,25.932298 6.467491,25.834211 6.517495,25.740882 L6.517495,25.738882 C6.617445,25.552773 6.756997,25.382893 6.933511,25.238882 L7.785156,24.543841 Z M33.359375,24.545841 L34.210938,25.241153 C34.299418,25.313343 34.377879,25.391338 34.447266,25.475528 C34.516206,25.559348 34.5772,25.648295 34.626953,25.741153 L34.626953,25.743153 C34.676563,25.835993 34.717893,25.931233 34.748047,26.030263 L34.748047,26.032263 C34.778067,26.131283 34.798287,26.23262 34.808597,26.334997 L34.808597,26.336997 C34.818777,26.439374 34.818397,26.542684 34.808597,26.645591 L34.808597,26.647591 C34.798697,26.750512 34.780227,26.85361 34.750007,26.954232 L34.750007,26.956232 C34.719647,27.056883 34.677917,27.155635 34.62696,27.251154 L34.62696,27.253154 C34.57587,27.348714 34.513416,27.44096 34.441413,27.528545 L34.441413,27.530545 L34.417973,27.553985 L34.410173,27.563785 L34.410173,27.565785 C33.976247,28.09272 33.294627,28.281865 32.683611,28.100941 L32.681611,28.100941 C32.478462,28.040521 32.283635,27.937652 32.107392,27.794301 L32.105392,27.792301 L31.456954,27.264957 L33.359375,24.545841 Z M18.580078,27.8622 L22.564453,27.8622 C22.564796,27.88971 22.567453,27.91715 22.572253,27.94423 L22.572253,29.780168 C22.567353,29.807248 22.564753,29.834688 22.564453,29.862198 L18.580078,29.862198 C18.579735,29.834688 18.577078,29.807248 18.572278,29.780168 L18.572278,27.940324 C18.576878,27.914524 18.579578,27.888404 18.580078,27.862194 L18.580078,27.8622 Z M14.572266,28.3622 L17.572266,28.3622 L17.572266,29.3622 L14.572266,29.3622 L14.572266,28.3622 Z M23.572266,28.3622 L26.572266,28.3622 L26.572266,29.3622 L23.572266,29.3622 L23.572266,28.3622 Z M14.572266,30.3622 L17.572266,30.3622 C17.572294,30.638331 17.796135,30.862172 18.072266,30.8622 L20.072266,30.8622 L20.072266,32.3622 L16.150391,32.3622 C16.121971,32.3578 16.093211,32.3558 16.064451,32.3563 C16.038951,32.356308 16.013481,32.3583 15.988281,32.3622 L14.572266,32.3622 L14.572266,30.3622 Z M23.572266,30.3622 L26.572266,30.3622 L26.572266,32.3622 L25.164062,32.3622 C25.106562,32.35205 25.047732,32.35205 24.990234,32.3622 L21.072266,32.3622 L21.072266,30.8622 L23.072266,30.8622 C23.089246,30.861761 23.106196,30.8605 23.123046,30.8583 C23.377687,30.83228 23.571566,30.618171 23.572265,30.362206 L23.572266,30.3622 Z M16.572266,33.3622 L20.072266,33.3622 L20.072266,42.004778 C19.593997,41.60626 18.984099,41.363291 18.322266,41.3622 C17.660559,41.3622 17.051175,41.60477 16.572266,42.002825 L16.572266,33.3622 Z M21.072266,33.3622 L24.572266,33.3622 L24.572266,42.004778 C24.093997,41.60626 23.484099,41.363291 22.822266,41.3622 C22.160559,41.3622 21.551175,41.60477 21.072266,42.002825 L21.072266,33.3622 Z M18.320312,42.3622 L18.322312,42.3622 C18.991727,42.3622 19.47889,42.8013 19.77153,43.3622 L16.869187,43.3622 C17.162055,42.8008 17.65034,42.3635 18.320358,42.3622 L18.320312,42.3622 Z M22.820312,42.3622 L22.822312,42.3622 C23.491727,42.3622 23.97889,42.8013 24.27153,43.3622 L21.369187,43.3622 C21.662055,42.8008 22.15034,42.3635 22.820358,42.3622 L22.820312,42.3622 Z" transform="translate(0 -.362)"/>
</svg>
