<svg xmlns="http://www.w3.org/2000/svg" width="1000" height="302" viewBox="0 0 1000 302">
  <g fill="none" fill-rule="evenodd">
    <path fill="#244786" d="M396.163903,239.47897 L332.32428,239.47897 L312.11495,301.402646 L225.201029,301.402646 L230.756926,286.35496 L0.29580657,286.35496 L0.29580657,0.169974325 L410.592603,0.169974325 L405.095305,16.9782161 L448.83738,16.9782161 L452.816461,0.169974325 L766.732599,0.169974325 L766.732599,286.35496 L474.779906,286.35496 L471.937255,301.402646 L381.461861,301.402646 L396.163903,239.47897 Z M435.244225,74.3977655 L386.797751,74.3977655 L354.341098,171.293255 L412.305775,171.293255 L435.244225,74.3977655 Z M682.429019,267.003625 L725.27352,19.8082796 L667.526583,19.8082796 L650.591998,117.939399 L565.919069,117.939399 L583.023001,19.8082796 L524.937372,19.8082796 L482.262216,267.003625 L540.178499,267.003625 L558.12916,163.779195 L642.632742,163.779195 L624.851427,267.003625 L682.429019,267.003625 Z M217.74516,174.134311 L208.601321,19.8069974 L159.326191,19.8069974 L102.769856,173.455203 L99.3832488,19.8069974 L42.996244,19.8069974 L55.3573591,267.002342 L115.300301,267.002342 L168.470029,126.936299 L178.46052,267.002342 L238.403462,267.002342 L327.809884,19.8069974 L269.221584,19.8069974 L217.74516,174.134311 Z"/>
    <path fill="#222" d="M806.766985,19.2035596 L819.944672,19.2035596 L824.106047,60.0828254 L829.394461,19.2901682 L839.711202,19.2901682 L845.259702,59.8229996 L849.507772,19.2035596 L862.512069,19.2035596 L854.102624,89.3565369 L840.578155,89.3565369 L834.596179,47.0049247 L828.960984,89.3565369 L815.263125,89.3565369 L806.766985,19.2035596 Z M873.823922,19.2035596 L905.381014,19.2035596 L905.381014,29.7698105 L889.342382,29.7698105 L889.342382,47.1781419 L901.566421,47.1781419 L901.566421,57.9176101 L889.342382,57.9176101 L889.342382,78.8768946 L905.554405,78.8768946 L905.554405,89.3565369 L873.823922,89.3565369 L873.823922,19.2035596 Z M920.030637,85.0694105 C916.765097,81.5184396 915.016759,75.8745014 914.785571,68.1374265 L928.049953,66.1454284 C928.10775,70.5913595 928.642366,73.7814115 929.653816,75.7156802 C930.665267,77.6499489 932.182419,78.6170688 934.20532,78.6170688 C936.806192,78.6170688 938.106609,76.9137831 938.106609,73.5071606 C938.106609,70.7934104 937.485299,68.4550012 936.24266,66.4918628 C935.000021,64.5287244 933.049396,62.4212692 930.390726,60.169434 L924.322055,54.8863086 C921.201008,52.1725584 918.845809,49.4732836 917.256387,46.7884032 C915.666965,44.1035227 914.872266,40.7113859 914.872266,36.611891 C914.872266,30.7224758 916.620604,26.1900037 920.117332,23.0143386 C923.614061,19.8386736 928.425602,18.2508649 934.552101,18.2508649 C941.198775,18.2508649 945.721335,20.1851046 948.119917,24.053642 C950.518499,27.9221794 951.804467,32.6278671 951.977859,38.1708461 L938.626781,39.8164097 C938.511187,36.1788298 938.178858,33.5517281 937.629785,31.9350259 C937.080712,30.3183236 935.881439,29.5388539 934.031929,29.5965933 C932.702595,29.5965933 931.676711,30.1595436 930.954246,31.2854613 C930.231781,32.4113789 929.870555,33.6671912 929.870555,35.052936 C929.870555,37.5357286 930.434069,39.5710107 931.561113,41.1588432 C932.688158,42.7466758 934.378699,44.5510039 936.632789,46.5718816 L942.441374,51.6817898 C945.909204,54.7997155 948.596732,57.975333 950.504038,61.2087374 C952.411345,64.4421418 953.364983,68.281752 953.364983,72.727683 C953.364983,76.0188268 952.599183,79.0067941 951.067558,81.6916746 C949.535933,84.376555 947.383021,86.4984449 944.608757,88.0574077 C941.834493,89.6163706 938.626799,90.3958403 934.985578,90.3958403 C928.281107,90.3958403 923.296177,88.6203815 920.030637,85.0694105 Z M971.09229,30.7225053 L960.342071,30.7225053 L960.342071,19.2035596 L997.360968,19.2035596 L997.360968,30.7225053 L986.697445,30.7225053 L986.697445,89.3565369 L971.09229,89.3565369 L971.09229,30.7225053 Z M819.511195,108.255014 L837.197038,108.255014 L850.28803,178.407991 L835.983304,178.407991 L833.642531,163.597918 L823.325789,163.597918 L820.89832,178.407991 L806.246813,178.407991 L819.511195,108.255014 Z M832.16871,154.330797 L828.440812,126.962475 L824.712914,154.330797 L832.16871,154.330797 Z M868.968985,176.892341 C865.905735,175.189029 863.752823,172.677405 862.510184,169.357391 C861.267545,166.037378 860.646235,161.808033 860.646235,156.669229 L860.646235,108.255014 L875.991305,108.255014 L875.991305,159.007662 C875.991305,161.836891 876.352531,164.088692 877.074996,165.763134 C877.79746,167.437575 879.256817,168.274784 881.453109,168.274784 C883.649401,168.274784 885.094309,167.437575 885.787875,165.763134 C886.48144,164.088692 886.828218,161.836891 886.828218,159.007662 L886.828218,108.255014 L902.259983,108.255014 L902.259983,156.669229 C902.259983,161.808033 901.624224,166.037378 900.352687,169.357391 C899.081149,172.677405 896.928237,175.189029 893.893886,176.892341 C890.859535,178.595652 886.712651,179.447295 881.453109,179.447295 C876.193567,179.447295 872.032234,178.595652 868.968985,176.892341 Z M922.328063,119.77396 L911.577844,119.77396 L911.577844,108.255014 L948.596741,108.255014 L948.596741,119.77396 L937.933218,119.77396 L937.933218,178.407991 L922.328063,178.407991 L922.328063,119.77396 Z M962.336063,173.601213 C959.099422,169.703806 957.481126,163.944391 957.481126,156.322795 L957.481126,130.253602 C957.481126,122.632006 959.099422,116.90146 962.336063,113.061792 C965.572704,109.222124 970.976658,107.302319 978.548086,107.302319 C986.177311,107.302319 991.624612,109.236559 994.890152,113.105097 C998.155692,116.973634 999.788437,122.689745 999.788437,130.253602 L999.788437,156.322795 C999.788437,163.944391 998.155692,169.703806 994.890152,173.601213 C991.624612,177.498621 986.177311,179.447295 978.548086,179.447295 C970.976658,179.447295 965.572704,177.498621 962.336063,173.601213 Z M982.882852,166.239481 C983.576418,164.767127 983.923195,162.760715 983.923195,160.220183 L983.923195,126.442823 C983.923195,123.844552 983.576418,121.823704 982.882852,120.38022 C982.189286,118.936736 980.744378,118.215005 978.548086,118.215005 C976.467388,118.215005 975.080277,118.951171 974.386711,120.423524 C973.693145,121.895878 973.346368,123.902291 973.346368,126.442823 L973.346368,160.220183 C973.346368,162.760715 973.664247,164.767127 974.300016,166.239481 C974.935785,167.711835 976.351794,168.448001 978.548086,168.448001 C980.744378,168.448001 982.189286,167.711835 982.882852,166.239481 Z M809.888016,197.306469 L825.406476,197.306469 L825.406476,225.714094 L836.24339,225.714094 L836.24339,197.306469 L851.848546,197.306469 L851.848546,267.459446 L836.24339,267.459446 L836.24339,236.799997 L825.406476,236.799997 L825.406476,267.459446 L809.888016,267.459446 L809.888016,197.306469 Z M874.084008,265.943795 C871.020758,264.240484 868.867846,261.728859 867.625207,258.408846 C866.382568,255.088832 865.761258,250.859487 865.761258,245.720684 L865.761258,197.306469 L881.106328,197.306469 L881.106328,248.059117 C881.106328,250.888345 881.467555,253.140147 882.190019,254.814588 C882.912484,256.48903 884.37184,257.326238 886.568132,257.326238 C888.764424,257.326238 890.209332,256.48903 890.902898,254.814588 C891.596464,253.140147 891.943242,250.888345 891.943242,248.059117 L891.943242,197.306469 L907.375007,197.306469 L907.375007,245.720684 C907.375007,250.859487 906.739247,255.088832 905.46771,258.408846 C904.196172,261.728859 902.04326,264.240484 899.008909,265.943795 C895.974558,267.647107 891.827674,268.498749 886.568132,268.498749 C881.308591,268.498749 877.147257,267.647107 874.084008,265.943795 Z M921.027633,197.306469 L939.320343,197.306469 C946.3138,197.306469 951.789999,198.547846 955.749104,201.030639 C959.70821,203.513432 961.687733,208.219119 961.687733,215.147843 C961.687733,223.63553 958.248854,228.514433 951.370991,229.784699 C955.532387,230.304353 958.653387,232.036508 960.734085,234.981216 C962.814783,237.925923 963.855116,241.967618 963.855116,247.106422 C963.855116,260.675172 956.77507,267.459446 942.614765,267.459446 L921.027633,267.459446 L921.027633,197.306469 Z M939.580429,225.36766 C942.874868,225.36766 945.114474,224.617059 946.299316,223.115836 C947.484158,221.614612 948.07657,219.276203 948.07657,216.100538 C948.07657,213.329048 947.325218,211.236028 945.822492,209.821413 C944.319765,208.406799 942.123506,207.699502 939.233648,207.699502 L936.546093,207.699502 L936.546093,225.36766 L939.580429,225.36766 Z M939.840515,256.633369 C943.134953,256.633369 945.461254,255.810596 946.819488,254.165024 C948.177721,252.519452 948.856827,249.935654 948.856827,246.413553 C948.856827,242.429537 948.177721,239.629219 946.819488,238.012517 C945.461254,236.395815 943.106055,235.587476 939.75382,235.587476 L936.546093,235.587476 L936.546093,256.633369 L939.840515,256.633369 Z"/>
  </g>
</svg>
