<svg xmlns="http://www.w3.org/2000/svg" xmlns:xlink="http://www.w3.org/1999/xlink" width="252px" height="127px" viewBox="0 0 252 127" version="1.1" class="mdl-js">
    <!-- Generator: Sketch 43.1 (39012) - http://www.bohemiancoding.com/sketch -->
    <title>_1585984963600 copy 2</title>
    <desc>Created with Sketch.</desc>
    <defs/>
    <g id="Page-1" stroke="none" stroke-width="1" fill="none" fill-rule="evenodd">
        <g id="_1585984963600-copy-2" fill-rule="nonzero" fill="#df1d27">
            <path d="M63.0720307,0 C97.9180077,0 126.144061,28.2964912 126.144061,63.1792347 C126.144061,98.0619782 97.9180077,126.317814 63.0720307,126.317814 C28.2260536,126.317814 -2.84217094e-14,98.0619782 -2.84217094e-14,63.1792347 C-2.84217094e-14,28.2964912 28.2260536,0 63.0720307,0 Z M107.705747,53.1778887 C111.076628,52.6900181 113.878927,50.2913213 115.625287,47.4860657 L94.3440613,47.4860657 C91.6229885,47.5673775 88.8613027,48.0145922 86.4245211,49.3155803 C84.3532567,50.3726331 82.7287356,52.1208359 81.5509579,54.072318 C79.8452107,56.9588854 77.4896552,63.2198906 77.4896552,63.2198906 L74.0781609,72.5300867 L64.7371648,47.4860657 L57.3049808,47.4860657 L48.3701149,71.5950015 L38.5011494,47.4860657 L30.9877395,47.4860657 L33.7088123,54.2349415 L33.7900383,54.1942856 L43.7808429,78.8724037 L52.4720307,78.8317478 L61.0819923,56.3083913 L69.651341,78.8317478 L78.1394636,78.8317478 L85.6122605,60.0080762 C85.6122605,60.0080762 86.8712644,56.5116707 88.1302682,55.1293708 C89.267433,53.8690386 91.0544061,53.3811681 92.6789272,53.2592004 C97.7149425,53.1372328 102.710345,53.2592004 107.705747,53.1778887 Z M31.3532567,58.0565941 L28.4697318,50.9011595 L10.4781609,78.8317478 L18.154023,78.8724037 L22.662069,71.757625 L36.9578544,71.757625 L34.88659,66.6756403 L25.8704981,66.6756403 L31.3532567,58.0565941 Z M98.7302682,73.099269 L84.3938697,73.099269 L82.0789272,78.8317478 L103.278927,78.8317478 L109.533333,63.097923 L97.6743295,63.097923 L95.359387,68.7897459 L100.476628,68.7897459 L98.7302682,73.099269 Z" id="Combined-Shape"/>
            <path d="M171.305747,74.5628806 L171.996169,80.5392947 C168.828352,81.5150358 164.970115,82.0435622 160.34023,82.0435622 C154.735632,82.0435622 150.755556,80.6206065 148.481226,77.8153509 C146.206897,74.9694394 145.029119,70.090734 145.029119,63.1792347 C145.029119,56.2270796 146.206897,51.3483742 148.481226,48.5431186 C150.755556,45.737863 154.735632,44.3149072 160.34023,44.3149072 C164.442146,44.3149072 168.056705,44.721466 171.265134,45.5345836 L170.574713,51.5516536 C167.731801,51.38903 164.320307,51.3077183 160.34023,51.3077183 C157.700383,51.3077183 155.91341,52.1208359 154.938697,53.7877269 C153.963985,55.4546179 153.476628,58.5851205 153.476628,63.1792347 C153.476628,67.7326931 153.963985,70.8631957 154.938697,72.5300867 C155.91341,74.2376336 157.700383,75.0507512 160.34023,75.0507512 C165.213793,75.0507512 168.868966,74.8881276 171.305747,74.5628806 Z" id="Shape"/>
            <path d="M177.397701,61.1870967 L176.626054,55.9018325 C181.337165,55.0480591 185.845211,54.6008444 190.190805,54.6008444 C193.724138,54.6008444 196.282759,55.3326502 197.947893,56.755606 C199.613027,58.1785617 200.425287,60.6585703 200.425287,64.1956317 L200.425287,81.3930682 L194.252107,81.3930682 L193.48046,77.449448 C190.881226,80.4986388 187.672797,82.0435622 183.855172,82.0435622 C181.377778,82.0435622 179.347126,81.3524123 177.763218,80.0514242 C176.17931,78.7097802 175.36705,76.8802657 175.36705,74.5222247 L175.36705,71.8795927 C175.36705,69.8061429 176.098084,68.1799077 177.478927,67.0415432 C178.900383,65.8625227 180.849808,65.2933404 183.327203,65.2933404 L192.627586,65.2933404 L192.627586,64.1143199 C192.586973,62.7726759 192.302682,61.8782466 191.693487,61.431032 C191.124904,60.9838173 189.987739,60.739882 188.363218,60.739882 C185.479693,60.739882 181.824521,60.9025055 177.397701,61.1870967 Z M183.083525,72.448775 L183.083525,73.4651719 C183.083525,75.2540306 184.098851,76.1484599 186.129502,76.1484599 C188.241379,76.1484599 190.39387,75.3353423 192.627586,73.6277954 L192.627586,69.9687664 L185.601533,69.9687664 C183.936398,70.0094223 183.083525,70.8631957 183.083525,72.448775 Z" id="1"/>
            <path d="M225.28046,54.6008444 L224.468199,61.8375907 L222.396935,61.8375907 C220.650575,61.8375907 218.010728,62.4474289 214.396169,63.6671053 L214.396169,81.3930682 L206.598467,81.3930682 L206.598467,55.3733061 L212.690421,55.3733061 L213.34023,59.1543028 C216.914176,56.1457678 220.406897,54.6008444 223.899617,54.6008444 L225.28046,54.6008444 Z" id="2"/>
            <path d="M240.591571,71.7169691 L234.093487,69.9687664 C231.697318,69.2776165 230.032184,68.3425313 229.138697,67.1228549 C228.204598,65.9031786 227.757854,64.1956317 227.757854,62.081526 C227.757854,59.3575822 228.610728,57.4467559 230.275862,56.3083913 C231.940996,55.1700267 234.783908,54.6008444 238.845211,54.6008444 C243.515709,54.6821562 247.536398,55.0074032 250.866667,55.6172414 L250.338697,60.6585703 C245.911877,60.5772585 242.581609,60.5366026 240.30728,60.5366026 C239.088889,60.5366026 238.236015,60.5366026 237.748659,60.5772585 C237.261303,60.5772585 236.814559,60.6585703 236.327203,60.739882 C235.839847,60.8618497 235.555556,61.0244732 235.47433,61.2277526 C235.35249,61.4716878 235.311877,61.8375907 235.311877,62.2848054 L235.311877,62.7320201 C235.35249,62.8946436 235.393103,63.0166112 235.47433,63.1385788 C235.514943,63.2605465 235.596169,63.3825141 235.636782,63.42317 C235.677395,63.5044818 235.799234,63.5857935 235.921073,63.6671053 C236.083525,63.748417 236.205364,63.8297288 236.28659,63.8703847 C236.367816,63.9110405 236.530268,63.9516964 236.733333,64.0330082 C236.977011,64.1143199 237.139464,64.1956317 237.261303,64.2362876 C237.423755,64.2769434 237.62682,64.3175993 237.951724,64.3989111 C238.317241,64.5208787 238.56092,64.5615346 238.723372,64.6021905 L245.383908,66.3910491 C247.698851,67.082199 249.363985,67.9359725 250.338697,69.0743371 C251.31341,70.1720458 251.800766,71.7982809 251.800766,73.9936983 C251.800766,77.0835451 250.90728,79.1976507 249.120307,80.2953594 C247.333333,81.433724 244.246743,81.9622505 239.901149,81.9622505 C235.677395,81.9622505 231.778544,81.6776593 228.245211,81.0678211 L228.691954,75.9858364 C229.991571,76.0671481 232.996935,76.107804 237.748659,76.107804 C240.429119,76.107804 242.216092,75.9858364 243.028352,75.782557 C243.840613,75.5386217 244.287356,75.0100953 244.287356,74.1563218 C244.287356,73.9936983 244.246743,73.8310748 244.246743,73.6684513 L244.124904,73.3025484 C244.043678,73.1805808 243.962452,73.0586131 243.881226,72.9773014 C243.840613,72.9366455 243.718774,72.8553337 243.556322,72.774022 C243.39387,72.6520543 243.272031,72.6113985 243.190805,72.5300867 C243.109579,72.4894308 242.947126,72.4081191 242.703448,72.3268073 C242.45977,72.2454956 242.256705,72.2048397 242.094253,72.1641838 C241.972414,72.1235279 241.728736,72.0422162 241.363218,71.9609044 C240.997701,71.8795927 240.754023,71.7982809 240.591571,71.7169691 Z" id="3"/>
        </g>
    </g>
</svg>