<svg version="1.1" id="Layer_1" xmlns="http://www.w3.org/2000/svg" xmlns:xlink="http://www.w3.org/1999/xlink" x="0px" y="0px" viewBox="0 0 1000 600" style="enable-background:new 0 0 1000 600;" xml:space="preserve">
<style type="text/css">
	.st0{enable-background:new    ;}
	.st1{fill:#8F8D80;}
	.st2{fill:#8F8C80;}
	.st3{fill:#8E8C7F;}
	.st4{fill:#A9A697;}
	.st5{fill:#AAA798;}
	.st6{fill:#A8A596;}
	.st7{fill:#A4A293;}
	.st8{fill:#959385;}
	.st9{fill:#A7A595;}
	.st10{fill:#9F9C8E;}
	.st11{fill:#929083;}
	.st12{fill:#DED9C3;}
	.st13{fill:#A6A394;}
	.st14{fill:#19335E;}
	.st15{fill:#1D3D1F;}
	.st16{display:none;}
	.st17{display:inline;fill:#19335E;}
	.st18{fill:#2A5D32;}
	.st19{fill:#244786;}
	.st20{display:none;fill:#244786;}
	.st21{fill:#FFFFFF;}
	.st22{font-family:'ArialMT';}
	.st23{font-size:8.0003px;}
	.st24{display:inline;fill:#333333;}
	.st25{display:inline;fill:#FFFFFF;}
	.st26{fill:#BAB5A8;}
	.st27{fill:#333333;}
	.st28{font-size:8.0004px;}
	.st29{font-size:7px;}
	.st30{font-size:6px;}
	.st31{font-size:7.0002px;}
	.st32{font-size:8px;}
</style>
<g id="base-ground" class="st0">
	<g>
		<polygon class="st1" points="592.4,92.9 592.9,92.8 590.4,87.1 589.8,86.6 		"></polygon>
	</g>
	<g>
		<polygon class="st2" points="551.3,100.9 548.8,93.6 548.3,93.4 550.8,101 		"></polygon>
	</g>
	<g>
		<polygon class="st3" points="210.7,125.8 222.9,279.3 221.1,279.6 209,122.2 		"></polygon>
	</g>
	<g>
		<polygon class="st4" points="900.7,167.8 900.7,170 888.8,172.5 887.4,170.5 		"></polygon>
	</g>
	<g>
		<polygon class="st1" points="972.8,235 958,238 959.4,240 972.8,237.2 		"></polygon>
	</g>
	<g>
		<polygon class="st5" points="383.3,248 382.6,248.2 371.7,195.5 372,194.7 		"></polygon>
	</g>
	<g>
		<polygon class="st3" points="403.9,119.7 405.5,127 406.1,126.9 404.7,120.1 		"></polygon>
	</g>
	<g>
		<polygon class="st6" points="712.5,349.5 712.5,351 664.8,362.3 664.8,360.5 		"></polygon>
	</g>
	<g>
		<polygon class="st3" points="372,194.7 371.7,195.5 270.7,215.8 271,214.4 		"></polygon>
	</g>
	<g>
		<polygon class="st3" points="270.7,215.8 271,214.4 264.7,154.3 264.6,156.8 		"></polygon>
	</g>
	<g>
		<polygon class="st7" points="664.8,360.5 664.8,362.3 649.2,328.4 649,326.6 		"></polygon>
	</g>
	<g>
		<polygon class="st3" points="874.5,133.6 890.2,130.6 890.2,128.7 873.1,131.5 		"></polygon>
	</g>
	<g>
		<polygon class="st8" points="712.5,349.5 712.5,351 718.5,363.2 718.5,362 		"></polygon>
	</g>
	<g>
		<polygon class="st9" points="921.8,303.3 994.4,288 994.4,289.4 922.7,304.6 		"></polygon>
	</g>
	<g>
		<polygon class="st3" points="544.5,381.3 544.5,383 540.2,371.3 540,369.5 		"></polygon>
	</g>
	<g>
		<polygon class="st10" points="649,326.6 649.2,328.4 609.1,337.3 608.5,335.9 		"></polygon>
	</g>
	<g>
		<polygon class="st11" points="621,366.1 621,367.9 544.5,383 544.5,381.3 		"></polygon>
	</g>
	<g>
		<polygon class="st3" points="888.9,311.3 888.8,309.8 890.5,313.5 890.5,314.6 		"></polygon>
	</g>
	<g>
		<polygon class="st1" points="890.5,313.5 923.8,306.3 923.9,307.3 890.5,314.6 		"></polygon>
	</g>
	<g>
		<polygon class="st12" points="372,194.7 271,214.4 264.7,154.3 370.6,134.7 369.2,126 403.9,119.7 405.5,127 461.5,117.3 
			460.4,109.7 548.3,93.4 550.8,101 558,99.6 555.7,92.4 589.8,86.6 592.4,92.9 638,83.7 733.1,67.5 724.3,51.8 738.8,49.3 
			744.1,57.7 766.5,53.3 761.2,45.1 774.3,43.1 783.9,58.9 802.7,55.7 841.8,107.4 871.9,102.6 890.2,128.7 873.1,131.5 
			900.7,167.8 887.4,170.5 924.8,223.3 959.5,216.3 972.8,235 958,238 994.4,288 921.8,303.3 923.8,306.3 890.5,313.5 888.8,309.8 
			775.8,334.5 778.8,339.3 783.3,347.5 718.5,362 712.5,349.5 664.8,360.5 649,326.6 608.5,335.9 621,366.1 544.5,381.3 540,369.5 
			465.5,384.5 391.5,399.8 272.4,424.9 115.5,457.9 5.7,481 34.8,154.3 209,122.2 221.1,279.6 383.3,248 		"></polygon>
	</g>
	<g>
		<polygon class="st13" points="540,369.5 540.2,371.3 6.8,482.9 5.7,481 126.4,455.4 263,426.8 323,414.2 375.5,403.1 448.9,387.9 
			495.4,378.5 		"></polygon>
	</g>
	<g>
		<polygon class="st3" points="776.6,335.9 888.9,311.3 888.8,309.8 775.8,334.5 		"></polygon>
	</g>
	<g>
		<polygon class="st3" points="718.5,363.2 783.3,348.8 783.3,347.5 718.5,362 		"></polygon>
	</g>
	<g>
		<polyline class="st12" points="783.9,58.9 779.2,50.9 767.3,53.1 744.1,57.7 738.8,49.3 724.3,51.8 733.1,67.5 		"></polyline>
		<polygon class="st3" points="724.3,52.9 732.4,67.6 733.1,67.5 724.3,51.8 		"></polygon>
		<g>
			<polygon class="st12" points="761.2,45.1 774.3,43.1 779.8,51.9 766.5,53.5 			"></polygon>
			<polygon class="st3" points="761.2,45.9 766,53.4 766.5,53.3 761.2,45 			"></polygon>
		</g>
	</g>
</g>
<g>
	<g>
		<g>
			<polygon class="st14" points="110.5,133.7 114.3,142.3 111,451.4 106.7,441.3 			"></polygon>
			<polygon class="st14" points="13.5,460 17.8,470.8 111,451.4 106.9,441.3 			"></polygon>
		</g>
		<g>
			<polygon class="st15" points="204.4,117.9 207,132.7 218,276 214.5,268.5 			"></polygon>
			<polygon class="st15" points="214.5,268.5 111,288.3 114.3,295.8 218,276 			"></polygon>
		</g>
		<polygon class="st15" points="328.7,395 331.6,405.3 398,391.5 395.8,380.9 		"></polygon>
		<polygon class="st15" points="399.2,380.2 400.9,390.9 445.9,381.5 444.9,370.8 		"></polygon>
		<polygon class="st15" points="448.9,370 449.8,380.8 492.6,371.8 492.6,360.9 		"></polygon>
		<polygon class="st15" points="504,294.8 504,309 116.7,384.2 111,372.4 		"></polygon>
		<polygon class="st14" points="276.7,196 279,208.7 430.8,179.3 427.3,166.2 		"></polygon>
		<polygon class="st14" points="370.3,116.4 371.6,123.3 372.8,126.8 373,126.8 		"></polygon>
		<polygon class="st15" points="432.6,310.9 434.8,325.5 449.8,380.8 448.9,370 		"></polygon>
		<polygon class="st15" points="385.5,320.4 386.6,333 400.9,390.9 399.2,380.2 		"></polygon>
		<g>
			<polygon class="st14" points="443,225.6 443,239.7 393.3,248.9 391.4,235.4 			"></polygon>
			<polygon class="st14" points="379.1,178.5 381.1,194.7 393.3,248.9 391.4,235.4 			"></polygon>
		</g>
		<g>
			<polygon class="st15" points="231.6,415 234,425.7 329,405.9 326.2,395.3 			"></polygon>
			<polygon class="st15" points="317.5,334 321.7,351.7 329,405.9 326.2,395.3 			"></polygon>
		</g>
		<g>
			<path class="st14" d="M163.5,429.2c0,0.8,3.1,10.8,3.1,10.8l65.2-13.6l-2.3-10.8L163.5,429.2z"></path>
			<polyline class="st14" points="228.5,364.8 231.7,426.4 229.4,415.5 225.3,352.8 			"></polyline>
		</g>
		<g>
			<polygon class="st14" points="110.5,440.3 114.8,450.5 163.7,440.3 160.6,429.6 			"></polygon>
			<polygon class="st14" points="159.2,365.9 163.7,377.8 163.7,440.3 160.6,429.6 			"></polygon>
		</g>
	</g>
	<g>
		<g>
			<polygon class="st14" points="496.1,371.1 537,362.5 537,351.7 496.1,360.2 			"></polygon>
			<polygon class="st14" points="477.7,301.8 477.7,313.3 496.1,371.1 496.1,360.2 			"></polygon>
		</g>
		<g>
			<polygon class="st14" points="537,342.3 538,354.9 545.4,378 545.4,367.3 			"></polygon>
			<polygon class="st14" points="614,352.6 614,363.8 545.4,378 545.4,367.3 			"></polygon>
		</g>
		<g>
			<polygon class="st14" points="587.7,192.3 587.7,206.7 484.8,228.4 483.4,212.8 			"></polygon>
			<polygon class="st14" points="468,163.7 483.4,212.8 484.8,228.4 469.4,178.9 			"></polygon>
		</g>
		<g>
			<polygon class="st14" points="505.4,91.1 505.4,102 526.6,162.8 526.6,149.5 			"></polygon>
			<polygon class="st14" points="573.9,141.3 573.9,154.2 526.6,162.8 526.6,149.5 			"></polygon>
			<polygon class="st14" points="550.4,90.3 550.5,94.8 548.9,95.2 547.2,91.2 			"></polygon>
		</g>
		<g>
			<polygon class="st14" points="523.8,150 523.8,163.7 475.7,172 475.7,158.7 			"></polygon>
			<polygon class="st14" points="460.5,111.9 461.3,127 475.7,172 475.7,158.7 			"></polygon>
			<polygon class="st14" points="468.2,105.5 468,110.3 469.4,110 			"></polygon>
			<polygon class="st14" points="462.4,106.5 462.4,111.5 468,110.3 468.2,105.5 			"></polygon>
			<polygon class="st14" points="459.6,99.4 460.8,111.8 462.4,111.5 462.4,106.5 			"></polygon>
		</g>
		<g>
			<polygon class="st14" points="780.1,94.5 780.1,106.8 573.8,145.5 574,132.8 			"></polygon>
			<polygon class="st14" points="557.5,93.3 558.8,110.3 573.8,145.5 574,132.8 			"></polygon>
			<polygon class="st14" points="561.2,88 561.2,92.3 562.8,91.9 			"></polygon>
			<polygon class="st14" points="557.5,88.9 557.7,93.2 561.2,92.3 561.2,88 			"></polygon>
			<polygon class="st14" points="554.7,82.6 555.1,93.3 558,100 557.5,88.9 			"></polygon>
		</g>
		<g>
			<polygon class="st14" points="894.5,181 894.5,196 846.4,205.5 845.8,190 			"></polygon>
			<polygon class="st14" points="758.8,57.3 759.4,70.2 846.4,205.5 845.8,190 			"></polygon>
		</g>
		<g class="st16">
			<polygon class="st17" points="711.6,335.3 710.5,345.3 667.8,355.4 668.3,345.3 			"></polygon>
			<polygon class="st17" points="636.1,269.4 638,283 667.8,355.4 668.3,345.3 			"></polygon>
			<polygon class="st17" points="883,238 883,251 691.2,290.5 685.7,278.3 			"></polygon>
		</g>
		<g>
			<path class="st14" d="M990.4,273.5c0,0.8,0,12,0,12l-71.1,15.4v-12.4L990.4,273.5z"></path>
			<polygon class="st14" points="874.2,220.2 874.6,233.1 919.3,300.9 919.3,288.5 			"></polygon>
			<polygon class="st14" points="970.3,221.3 970.8,235 964.1,236.3 955.7,224.3 			"></polygon>
		</g>
		<g>
			<polygon class="st15" points="625.9,144.9 625.9,155.2 672.4,146.5 672.4,136.4 			"></polygon>
			<polygon class="st15" points="617,126.3 617,136.1 625.9,155.2 625.9,144.9 			"></polygon>
		</g>
		<g>
			<polygon class="st15" points="582.3,153 582.3,163.4 624.7,155.4 624.7,145.2 			"></polygon>
			<polygon class="st15" points="575,134.1 575,144.9 582.3,163.4 582.3,153 			"></polygon>
		</g>
		<g>
			<polygon class="st15" points="673.6,136.1 673.6,146.2 719.7,137.5 719.7,127.6 			"></polygon>
			<polygon class="st15" points="662.7,117.9 662.7,127.4 673.6,146.2 673.6,136.1 			"></polygon>
		</g>
		<g>
			<polygon class="st14" points="720,344 720,356.4 772.8,344 772.4,332.3 			"></polygon>
			<polygon class="st14" points="689,279 689,288.8 720,356.4 720,344 			"></polygon>
			<polygon class="st14" points="770.2,313.8 770.2,322 767,322.8 762.8,315.3 			"></polygon>
			<polygon class="st14" points="775.4,322.5 775.4,331.3 770.2,322 770.2,313.8 			"></polygon>
			<polygon class="st14" points="888.3,298 887.6,307.3 775.4,331.3 775.4,322.5 			"></polygon>
		</g>
		<g class="st16">
			<polygon class="st17" points="918.8,291.9 918.8,303.2 890.4,309.3 890.4,297.5 			"></polygon>
			<polygon class="st17" points="858,245.2 858,255.2 890.4,309.3 890.4,297.5 			"></polygon>
		</g>
		<g>
			<polygon class="st14" points="811.2,141.3 811.2,151.7 769.7,159.9 769.3,149.8 			"></polygon>
			<polygon class="st14" points="739.9,103.9 740.7,114.2 769.7,159.9 769.3,149.8 			"></polygon>
		</g>
		<g>
			<polygon class="st15" points="709,109.4 709,117.3 721.1,137.3 721.1,127.4 			"></polygon>
			<polygon class="st15" points="721.1,127.4 721.1,137.3 750,131.8 750,122 			"></polygon>
		</g>
		<g>
			<polygon class="st14" points="484,214.4 484,226.1 510.5,312.4 508.8,291 			"></polygon>
			<polygon class="st14" points="508.8,291 510.5,311.6 915.1,229 915.1,209 			"></polygon>
			<polygon class="st14" points="651.5,313.7 650.9,322.6 605.5,332.9 605.7,323.9 			"></polygon>
			<polygon class="st14" points="587.2,274.9 587.2,284.1 605.5,332.9 605.7,323.9 			"></polygon>
		</g>
		<g>
			<polygon class="st14" points="520.3,293.3 520.3,306.2 535.8,349.2 535.3,338.2 			"></polygon>
			<polygon class="st14" points="602.7,324.5 602.7,336.4 535.8,349.2 535.3,338.2 			"></polygon>
		</g>
	</g>
</g>
<g id="landmarks-ground_1_">
	<polygon id="space1_1_" class="mapplic-clickable" points="113.7,133.3 204.4,117.9 214.5,268.5 111,288.3 	"></polygon>
	<polygon id="space2_1_" class="mapplic-clickable" points="111,290.5 481.2,222.5 504,294.8 111,372.4 	"></polygon>
	<polygon id="space3_1_" class="mapplic-clickable" points="226.8,352.3 317.5,334 326.2,395.3 231.6,415 	"></polygon>
	<polygon id="space4_1_" class="mapplic-clickable" points="320.4,333.5 382.5,321 395.8,380.9 328.7,395 	"></polygon>
	<polygon id="space5_1_" class="mapplic-clickable" points="385.5,320.4 429.2,311.6 444.9,370.8 399.2,380.2 	"></polygon>
	<polygon id="space6_1_" class="mapplic-clickable" points="432.6,310.9 474.3,302.5 492.6,360.9 448.9,370 	"></polygon>
	<polygon id="space7_1_" class="mapplic-clickable" points="575,134.1 582.3,153 624.7,145.2 615.9,126.4 	"></polygon>
	<polygon id="space8_1_" class="mapplic-clickable" points="617,126.3 625.9,144.9 672.4,136.4 661.6,118.1 	"></polygon>
	<polygon id="space9_1_" class="mapplic-clickable" points="662.7,117.9 673.6,136.1 719.7,127.6 707.7,109.7 	"></polygon>
	<polygon id="space10_1_" class="mapplic-clickable" points="709,109.4 721.1,127.4 750,122 737.7,104.1 	"></polygon>
	<polygon id="occupied1" class="st19" points="41.1,146 110.8,133.7 106.9,441.3 13.5,460 	"></polygon>
	<polygon id="occupied2" class="st19" points="110.5,375.6 159.2,365.9 160.6,429.6 110.5,440.3 	"></polygon>
	<polygon id="occupied3" class="st19" points="162.1,365.6 225.3,352.8 229.4,415.5 163.5,429.2 	"></polygon>
	<polygon id="wcroom" class="st19" points="537,342.3 604,328 614,352.6 545.4,367.3 	"></polygon>
	<polygon id="techroom1" class="st19" points="477.7,301.8 517,293.9 537,351.7 496.1,360.2 	"></polygon>
	<polygon id="techroom2" class="st19" points="520.3,293.3 585.6,279.9 602.7,324.5 535.3,338.2 	"></polygon>
	<polygon id="techroom3" class="st19" points="379.1,178.5 428.1,169.2 443,225.6 391.4,235.4 	"></polygon>
	<polygon id="occupied4" class="mapplic-clickable" points="271,146.3 373,126.8 370.3,116.4 404,109.7 406.7,120.3 414.5,119.2 427.3,166.2 
		276.7,196 	"></polygon>
	<polygon id="occupied5" class="mapplic-clickable" points="475.7,158.7 460.5,111.9 469.4,110 468.2,105.5 462.4,106.5 459.6,99.4 502.8,91.8 
		523.8,150 	"></polygon>
	<polygon id="occupied6" class="mapplic-clickable" points="526.6,149.5 505.4,91.1 547.8,83.8 550.4,90.3 547.2,91.2 548.9,95.2 555.2,93.7 
		573.9,141.3 	"></polygon>
	<polygon id="occupied7" class="mapplic-clickable" points="557.5,93.3 562.8,91.9 561.2,88 557.5,88.9 554.7,82.6 589.5,75.5 592.7,81.5 
		594.1,84.1 595.4,86.4 737.8,60 755.4,56.9 780.1,94.5 574,132.8 	"></polygon>
	<polygon id="occupied11" class="st19" points="758.8,57.3 800.8,49.3 866.3,141.5 894.5,181 845.8,190 	"></polygon>
	<polygon id="occupied8" class="mapplic-clickable" points="484,214.4 743.1,163.3 749.8,174.3 823.7,159.9 849.4,199.1 851.8,198.6 847.8,192.6 
		896.8,183 915.1,209 631.4,266.2 651.5,313.7 605.7,323.9 587.3,275.1 508.8,291 	"></polygon>
	<polygon id="coffeehouse" class="st19" points="739.9,103.9 781.1,95.9 811.2,141.3 769.3,149.8 	"></polygon>
	<polygon id="occupied10" class="st19" points="874.2,220.2 919.3,288.5 990.4,273.5 955.7,224.3 970.3,221.3 958,203 	"></polygon>
	<polygon id="occupied9" class="mapplic-clickable" points="720,344 689,279 856.3,245.7 888.3,298 775.4,322.5 770.2,313.8 762.8,315.3 
		772.4,332.3 	"></polygon>
	<polygon class="st20" points="636.1,269.4 668.3,345.3 711.6,335.3 685.7,278.3 883,238 871.7,220.7 	"></polygon>
	<polygon class="st20" points="858,245.2 884.4,239.4 918.8,291.9 890.4,297.5 	"></polygon>
	<polygon id="waitingarea" class="st19" points="468,163.7 568.3,145.7 587.7,192.3 483.4,212.8 	"></polygon>
	<text transform="matrix(0.9856 -0.1693 0.1693 0.9856 393.8929 199.0771)" class="st21 st22 st23">Технічне </text>
	<text transform="matrix(0.9856 -0.1693 0.1693 0.9856 389.9248 207.8759)" class="st21 st22 st23">приміщення</text>
</g>
<g>
	<g>
		<g>
			<g>
				<g class="st16">
					<path class="st24" d="M427.1,209.1h-0.6h-0.1h-0.1h-0.1l-1.9-0.7c-0.1,0-0.2-0.1-0.3-0.1s-0.1-0.1-0.2-0.2
						c0-0.1-0.1-0.1-0.1-0.2s0-0.1,0.1-0.2l0.6-0.9l1.6,0.6l-0.6,0.7l1.2,0.4c0.1,0.1,0.2,0.1,0.3,0.2c0.1,0.1,0.1,0.1,0.1,0.2
						c0,0.1,0,0.1-0.1,0.2C426.8,209.1,427.1,209.1,427.1,209.1 M428.1,209.1c0,0-0.6,0-0.7,0s-0.2-0.1-0.3-0.1s-0.1-0.1-0.1-0.2
						c0-0.1,0-0.1,0.1-0.2l0.6-0.8l-1.2-0.4l0.8-1l1.4,0.5c0.1,0,0.2,0.1,0.3,0.1c0.1,0.1,0.1,0.1,0.1,0.2s0,0.1,0,0.2
						s0,0.1-0.1,0.2l-0.9,1.2c0,0,0,0.1-0.1,0.1c0,0,0,0-0.1,0.1s-0.1,0-0.2,0.1c0.1-0.1,0-0.1,0,0 M423.1,207.1c0,0-0.7,0-0.8,0
						c-0.1,0-0.2-0.1-0.3-0.1c-0.1-0.1-0.1-0.1-0.1-0.2s0-0.1,0.1-0.2l1.3-1.7c0,0,0-0.1,0.1-0.1l0.1-0.1l0.1-0.1c0,0,0.1,0,0.2-0.1
						l0.9-0.2l0.9-0.2c0.1,0,0.2,0,0.2,0h0.2h0.2c0.1-0.2,0.1-0.2,0.2-0.1l2.7,0.9c0.1,0,0.2,0.1,0.3,0.2c0,0.1,0.1,0.1,0.1,0.2
						c0,0.1,0,0.1-0.1,0.2s-0.1,0.1-0.3,0.6H429h-0.1h-0.1h-0.1l-1.7-0.6l0.4,0.8l-1.5,0.3l-1.6,0.3l-0.4-0.8L423.1,207.1
						C423.1,207.1,423.1,207.2,423.1,207.1c-0.1,0.1-0.2,0.1-0.2,0.2s-0.1,0-0.3,0.1c0.1-0.1,0.1,0,0,0 M424.6,204
						c-0.2,0-0.4,0.1-0.6,0s-0.4-0.1-0.6-0.1s-0.3-0.1-0.5-0.3s-0.2-0.2-0.3-0.4c-0.1-0.1-0.1-0.3-0.1-0.4c0-0.1,0.1-0.3,0.1-0.4
						s0.2-0.2,0.4-0.3s0.3-0.1,0.5-0.2c0.2,0,0.4-0.1,0.6,0c0.2,0,0.4,0.1,0.6,0.1c0.2,0.1,0.3,0.1,0.5,0.3s0.3,0.2,0.3,0.4
						c0.1,0.1,0.1,0.3,0.1,0.4c0,0.1-0.1,0.3-0.1,0.4s-0.2,0.2-0.4,0.3S424.8,204,424.6,204 M428.4,199.8l-11,2.1
						c-0.3,0.1-0.5,0.1-0.6,0.2s-0.3,0.2-0.4,0.3s-0.1,0.2-0.1,0.4s0,0.3,0.1,0.5l3.9,7.4c0.1,0.2,0.2,0.3,0.3,0.4
						c0.1,0.1,0.3,0.2,0.5,0.3s0.4,0.1,0.6,0.1s0.5,0,0.7-0.1l11.2-2.2c0.3-0.1,0.5-0.1,0.6-0.2s0.3-0.2,0.4-0.3s0.1-0.2,0.1-0.4
						c0-0.1,0-0.3-0.1-0.5l-3.9-7.3c-0.1-0.2-0.2-0.3-0.3-0.4c-0.1-0.1-0.3-0.2-0.5-0.3s-0.4-0.1-0.6-0.1
						C428.9,199.7,428.7,199.8,428.4,199.8"></path>
					<path class="st25" d="M423.6,202c-0.2,0-0.4,0.1-0.5,0.2c-0.1,0.1-0.3,0.2-0.4,0.3s-0.1,0.2-0.1,0.4c0,0.1,0,0.3,0.1,0.4
						c0.1,0.1,0.2,0.3,0.3,0.4s0.3,0.2,0.5,0.3s0.4,0.1,0.6,0.1s0.4,0,0.6,0s0.4-0.1,0.5-0.2s0.3-0.2,0.4-0.3s0.1-0.2,0.1-0.4
						c0-0.1,0-0.3-0.1-0.4c-0.1-0.1-0.2-0.3-0.3-0.4c-0.1-0.1-0.3-0.2-0.5-0.3s-0.4-0.1-0.6-0.1C424,201.9,423.8,201.9,423.6,202"></path>
					<path class="st25" d="M425.6,204.1l-0.9,0.2l-0.9,0.2c-0.1,0-0.1,0-0.2,0.1s-0.1,0-0.1,0.1s-0.1,0.1-0.1,0.1l-0.1,0.1l-1.3,1.7
						c-0.1,0.1-0.1,0.2-0.1,0.2s0.1,0.1,0.1,0.2c0.1,0.1,0.2,0.1,0.3,0.1c0.1,0,0.3,0,0.3,0h0.1h0.1c0-0.1,0.1-0.1,0.1-0.2
						s0-0.1,0.1-0.1l0.8-1l0.4,0.8l1.6-0.3l1.5-0.3l-0.4-0.8l1.7,0.9h0.1h0.1h0.1h0.1c0.1-0.3,0.2-0.4,0.3-0.4s0.1-0.1,0.1-0.2
						c0-0.1,0-0.1-0.1-0.2c0-0.1-0.1-0.1-0.3-0.2l-2.7-0.9c-0.1,0-0.1,0-0.2-0.1c-0.1,0-0.1,0-0.2,0S425.8,204.1,425.6,204.1
						C425.7,204,425.7,204,425.6,204.1"></path>
					<path class="st25" d="M427.3,206.4l-0.8,1l1.2,0.4l-0.6,0.8c-0.1,0.1-0.1,0.2-0.1,0.2s0.1,0.1,0.1,0.2s0.2,0.1,0.3,0.1
						s0.2,0,0.3,0h0.1h0.1c0,0,0.1,0,0.1-0.1c0,0,0-0.1,0.1-0.1l0.9-1.2c0-0.1,0.1-0.1,0.1-0.2c0-0.1,0-0.1,0-0.2s-0.1-0.1-0.1-0.2
						c-0.1-0.1-0.2-0.1-0.3-0.1L427.3,206.4"></path>
					<path class="st25" d="M424.4,206.8l-0.6,0.9c0,0.1-0.1,0.1-0.1,0.2c0,0.1,0,0.1,0.1,0.2s0.1,0.1,0.2,0.2
						c0.1,0.1,0.2,0.1,0.3,0.1l1.9,0.7h0.1h0.1h0.1h0.1c0.1,0,0.2-0.1,0.3-0.1s0.1-0.1,0.1-0.2c0-0.1,0-0.1-0.1-0.2
						c-0.1-0.1-0.1-0.1-0.3-0.2l-1.2-0.4l0.6-0.7L424.4,206.8"></path>
				</g>
				<g class="st16">
					<path class="st24" d="M677.1,342.1c0,0-0.2,0-0.3,0s-0.3,0-0.4-0.1c-0.1-0.1-0.3-0.1-0.4-0.2c-0.1-0.1-0.2-0.2-0.3-0.3
						l-2.6-4.1c-0.1-0.1-0.1-0.2-0.1-0.3s0-0.2,0-0.3s0.1-0.2,0.2-0.2s0.2-0.1,0.4-0.2l5.2-1.3c0.1,0,0.3,0,0.4,0s0.3,0,0.4,0.1
						c0.1,0,0.3,0.1,0.4,0.2c0.1,0.1,0.2,0.2,0.3,0.3l2.7,4.1c0.1,0.1,0.1,0.2,0.1,0.3c0,0.1,0,0.2,0,0.3s-0.1,0.2-0.2,0.2
						s-0.2,0.1-0.3,0.1l-5.4,1.4 M672.1,335.1C672.1,335.1,672.2,335.1,672.1,335.1s-0.2,0-0.3-0.1s-0.1-0.1-0.2-0.2s0-0.1,0-0.2
						l0.5-1.6l0,0c0,0-0.2,0-0.1-0.1s0,0,0.1,0.2h0.1h0.1h0.1h0.1h0.1l2.1,0.7c0.1,0,0.2,0.1,0.3,0.2s0.1,0.1,0.1,0.2s0,0.1-0.1,0.2
						s-0.1,0.1-0.2,0.7h-0.1h-0.1h-0.1h-0.1l-0.9-1l1.1,1.7c0,0.1,0.5,0.2,0.5,0.2v0.2l-0.5,0.1c0,0-0.1,0.1-0.2-0.2h-0.2H674
						c-0.1,0.3-0.1,0.2-0.2,0.2s-0.1-0.1-0.2-0.2l-1.1-1.7l-0.3,0.8C672.3,335.1,672.2,335.1,672.1,335.1L672.1,335.1L672.1,335.1
						L672.1,335.1 M677.3,334.2l-1.1-1.6c0-0.1-0.1-0.1-0.1-0.2s0,0,0-0.1s0.1-0.1,0.1-0.1s0.1-0.1,0.2-0.1c0.1,0-0.3,0-0.3,0h0.2
						c0.1-0.1,0.1,0,0.2,0s0.1,0.1,0.2,0.2l1.1,1.7l0.3-0.7v-0.1v-0.1l0,0h0.1h0.3c0.1,0.1,0.2,0.1,0.3,0.2s0.1,0.1,0.2,0.2
						s0,0.1,0,0.2l0.1,1.6v0.1c0,0-0.6,0-0.7,0.1s0,0-0.1,0.6h-0.1h-0.1H678h-0.1h-0.1l-2.1-1.5c-0.1,0-0.2-0.1-0.3-0.2
						s-0.1-0.1-0.1-0.2s0-0.1,0.1-0.2s0.1-0.1,0.2,0.1h0.1h0.1h0.1h0.1l0.8,0.3 M679.2,330.5l-11.1,2.7c-0.3,0.1-0.5,0.1-0.6,0.2
						c-0.2,0.1-0.3,0.2-0.3,0.4c-0.1,0.1-0.1,0.3-0.1,0.5s0.1,0.4,0.3,0.6l5.6,8.7c0.1,0.2,0.3,0.4,0.4,0.5c0.2,0.1,0.3,0.2,0.5,0.3
						s0.4,0.1,0.6,0.1s0.5,0,0.7-0.1l11.2-2.8c0.3-0.1,0.5-0.1,0.6-0.2c0.2-0.1,0.3-0.2,0.3-0.3s0.1-0.3,0-0.5
						c0-0.2-0.1-0.4-0.3-0.5l-5.7-8.6c-0.1-0.2-0.3-0.4-0.5-0.5s-0.3-0.2-0.5-0.3c-0.2-0.1-0.4-0.1-0.6-0.1
						C679.7,330.4,679.4,330.5,679.2,330.5"></path>
					<path class="st25" d="M677,341.7l-2.7-4.1l5.3-1.3l2.7,4.1L677,341.7 M679.2,336l-5.4,1.3c-0.1,0-0.3,0.1-0.4,0.2
						s-0.2,0.1-0.2,0.2s-0.1,0.2,0,0.3s0,0.2,0.1,0.3l2.7,4.2c0.1,0.1,0.2,0.2,0.3,0.3c0.1,0.1,0.2,0.1,0.4,0.2s0.3,0.1,0.4,0.1
						c0.1,0,0.3,0,0.4,0l5.4-1.4c0.1,0,0.3-0.1,0.3-0.1s0.2-0.1,0.2-0.2s0.1-0.2,0-0.3s0-0.2-0.1-0.3l-2.8-4.2
						c-0.1-0.1-0.2-0.2-0.3-0.3c-0.1-0.1-0.2-0.1-0.4-0.2c-0.1,0-0.3-0.1-0.4-0.1C679.5,335.9,679.3,335.9,679.2,336"></path>
					<path class="st24" d="M676.4,340.1h-0.3c-0.1,0-0.1,0-0.2,0c0,0,0,0-0.1,0l0,0l-0.7-1v-0.2v-0.1c0,0,0.3,0,0.4-0.7h0.1h1h0.1
						h0.1h0.1c0,0,0,0.3,0.1,0.4l0.1,1v0.1v0.1v-0.6h0.5h-0.1l0.6,1.9v0.1l0,0h0.3h-0.1h-0.1h-0.1H678c0,0,0,0.1-0.1,0l-0.9-2h-0.1
						l1.2,2v0.1v0.1v-0.2h-0.4h-0.1h-0.1h-0.1c0,0,0,0-0.1-0.1l-0.9-1.2l0,0 M678,340.1L678,340.1C678,340.1,678,340.1,678,340.1
						c-0.1,0-0.1,0-0.2,0l0,0l-0.7-1v-0.6v-0.1v-0.3l0,0l1.1,1h0.1h0.1h0.1c0,0,0-1.1,0.1-1l0.5,1v0.1v0.1v-0.2h0.1h-0.1l1,1.5v0.1
						v0.4H680h-0.1h-0.1h-0.1h-0.1c0,0,0-0.3-0.1-0.4l-0.9-0.6h-0.1l0.6,0.6v0.1v0.3h0.3h-0.1h-0.1h-0.1H679c0,0,0,0-0.1-0.1
						l-0.9-1.2l0,0 M680.1,339.1C680.1,339.1,680,339.1,680.1,339.1c-0.1,0-0.1,0-0.2,0c0,0,0,0-0.1,0s0,0,0,0l-0.7-1l0,0V338v-0.9
						h-0.3l1.1,1h0.1h0.1h0.1c0,0,0-0.5,0.1-0.4l0.8,1v0.1v0.1v0.2h-0.2h-0.1l1.3,1.1v0.1v-0.2h-0.4h-0.1h-0.1h-0.1h-0.1
						c0,0,0,0.3-0.1,0.2l-0.9-1.2L680.1,339.1l1,1.2v0.1v0.7l0,0H681h-0.1h-0.1h-0.1c0,0,0,0-0.1-0.1l-0.9-1.2l0,0 M676.1,338.1
						L676.1,338.1h-0.2c0,0.3-0.1,0.3-0.1,0.2S675.7,338.2,676.1,338.1L676.1,338.1V338c-0.4,0-0.4-0.1-0.3,1.1h0.1h0.2h0.2
						c0-1.2,0.1-1.2,0.1-1.1s0.1,0.1,0.7,0.1v0.1v0.1c-0.6,0-0.6,0.1-0.7-0.2H676.1 M678.1,338.1h-0.6h-0.2
						c-0.1-0.1-0.1-0.1-0.1-0.2s-0.1-0.1-0.1-0.1v-0.1v-0.1c0,0,0-0.1,0.1-0.5h0.1h0.1h0.1c0,0.4,0.1,0.4,0.1,0.5s0.1,0.1,0.5,0.1
						v0.1v0.1c-0.2,0-0.3,0-0.4,0.2l0,0 M679.3,338.1L679.3,338.1h-0.2c0-0.5-0.1-0.5-0.1-0.6s-0.1-0.1,0.1-0.1v-0.1v-0.1
						c-0.2,0-0.2-0.1-0.1-0.1s0.1,0,0.1,0s0.1,0,0.2,0c0,0,0.1,0,0.2,0c0,0,0.1,0,0.1,0.1s0.1,0.1,0.5,0.1v0.1v0.1
						c-0.4,0-0.4,0.1-0.5,0.6h-0.5 M679.7,336.3l-5.3,1.3l2.7,4.1l5.3-1.3L679.7,336.3"></path>
					<path class="st25" d="M676.4,332c-0.1,0-0.1,0-0.2,0.1s-0.1,0.1-0.1,0.1v0.2c0,0-0.5,0.1-0.4,0.2l1.1,1.6l-0.9-0.1h-0.1h-0.1
						h-0.1h-0.1c-0.1-0.3-0.2-0.2-0.2-0.2s-0.1,0.1-0.1,0.2s0,0.1,0.1,0.2s0.1,0.1,0.3,0.2l2.1,1.6h0.1h0.1h0.1h0.1h0.1h0.1
						c0.1-0.7,0-0.7,0.1-0.8s0,0,0-0.1l0.7-1.6v-0.2c0,0-0.1-0.1-0.2-0.2s-0.2-0.1-0.3-0.1s-0.2,0-0.3,0c0,0,0,0-0.1,0s0,0-0.1,0
						l0,0c0,0,0,0,0,0.1l-0.2,0.6l-1.1-1.5c0-0.1-0.1-0.1-0.2-0.2C676.5,332.1,676.5,332,676.4,332s-0.1,0-0.3,0.1c0.2,0,0,0,0,0"></path>
					<path class="st25" d="M671.9,332.9C671.8,333,671.8,333,671.9,332.9c-0.1,0-0.1,0.1-0.2,0.1c0,0,0,0-0.1,0.1s0,0,0,0.1
						l-0.5,1.6c0,0.1,0,0,0,0s0.1,0.1,0.2,0.2s0.2,0.1,0.3,0.1s0.7,0,0.7,0h0.1h0.7v0.2v-0.1l-0.4-0.7l1.1,1.7
						c0,0.1,0.1,0.1,0.2,0.2s0.1,0.1,0.2-0.3h0.2h0.2c0.1,0.4,0.1,0.4,0.2,0.3s0.3-0.1,0.3-0.1v-0.2c0,0-0.2-0.1-0.3-0.2l-1.1-1.7
						l0.9,0.9h0.1h0.1h0.1h0.1c0.1-0.5,0.2-0.6,0.2-0.6s0.1-0.1,0.1-0.2s0-0.1-0.1-0.2c0-0.1-0.1-0.1-0.3-0.2l-2.1-0.8h-0.1h-0.1
						c-0.2-0.1-0.2-0.1-0.3-0.1l0,0"></path>
					<path class="st25" d="M679.9,337.8l-1.1,0.3h0.3v-0.2v0.1v0.1l0.3,1l0,0c0,0,0,0,0.1,0s0,0,0.1,0c0,0,0,0,0.1,0h0.1l0.9,1.3
						c0,0,0,0.1,0.1-0.3h0.1h0.1h0.1l0,0v0.4v-0.1v-0.1l-0.8-1.2h0.1l0.9,1.2l0.1,0.8h0.1h0.1h0.1h0.4v-0.7v-0.1v-0.1l-1.2-1.1h0.1
						h0.1l0,0c0,0,0-0.2,0-0.3s0,0,0-0.1l-0.7-1l-0.1-0.6h-0.1c-0.1,0.4-0.3,0-0.3,0h0.2"></path>
					<path class="st25" d="M679,337.1L679,337.1c-0.1,0-0.2,0-0.9,0.1v0.1v0.1l0.8,0.1c0,0,0.1,0,0.1,0.6h0.1h0.1h0.1
						c0-0.5,0.1-0.5-0.2-0.6v-0.1v-0.1l0.2-0.1c0,0-0.1,0-0.1-0.1C679.2,337.1,679.1,337.1,679,337.1C679.1,337,679,337.1,679,337.1
						"></path>
					<path class="st25" d="M678.3,337.8l-1.1,0.3h-0.1c0,0,0,0.1,0,0.2s0,0,0,0.1v0.1l0.7,1.6l0,0h0.1h0.1h0.1h0.1l0.9,0.7
						c0,0,0,0.1,0.1,0.3h0.1h0.1h0.1h-0.4v-0.2v-0.1v-0.1l-0.4-1.6h0.1l0.9,1.6c0,0,0,0.1,0.1-0.6h0.1h0.1h0.1l0,0v0.7v-0.1v-0.1
						l-0.8-1.5h0.1h-0.3v0.2v-0.1v-0.1l-0.3-1c0,0,0,0-0.1-0.1s-0.1,0.1-0.1,0.1h-0.1c-0.1-0.1-0.2-0.1-0.2-0.1"></path>
					<path class="st25" d="M677.4,337.5L677.4,337.5c-0.1,0-0.2,0-0.3,0.1v0.1v0.1l0.2,0.1c0,0,0.1,0,0.1,0.1s0.1,0,0.2,0.1h0.2h0.1
						c0-0.1,0.1-0.1,0.2-0.2v-0.1v-0.1l-0.2-0.1c0,0-0.1,0-0.1-0.1s-0.1,0-0.1-0.4h-0.6"></path>
					<path class="st25" d="M676.6,338.8l-1,0.3h0.6c0,0,0,0-0.1,0.1v-0.3v0.1v1.1l0,0h0.1h0.1h0.1h0.1l0.9,1.2c0,0,0,0.1,0.1-0.2
						h0.1h0.1h0.1h0.1h0.2v0.2v-0.1l-1.1-1.1h0.1l0.9,1.1c0,0,0,0.1,0.1-0.1h0.1h0.1h0.1h0.7v0.2v-0.1v-0.1l-1.5-1h0.1h0.4v-0.3
						v-0.1v-0.1l-1-1c0,0,0,0-0.1-0.1s-0.1,0.6-0.1,0.6h-0.1c-0.1-0.2-0.1-0.2-0.2-0.1"></path>
					<path class="st25" d="M675.7,337.9L675.7,337.9c-0.1,0-0.2,0-0.6,0.1v0.1v0.1l0.5,0.1c0,0,0.1,0,0.1-0.2h0.1h0.1h0.1
						c0,0.3,0.1,0.3,0.1,0.2v-0.1v-0.1L676,338c0,0-0.1,0-0.1,1.1h-0.2l0,0"></path>
				</g>
				<g class="st16">
					<path class="st24" d="M570.1,248.1c0,0,0.3,0,0.2,0s-0.2-0.1-0.2-0.2s0-0.2,0-0.2s-0.1-0.1,0-0.1l1.7-0.5h0.2h0.2
						c0.1,0.1,0.1,0.1,0.2,0.2l0.1,0.1l0.6,1.2v0.1v0.1c0.1,0,0,0.3,0,0.3H573h-0.1h-0.2c-0.1-0.2-0.1-0.2-0.1-0.3s-0.1-0.1-0.1-0.1
						l-0.4-0.6l-1,1.5v0.1c0.1,0.1,0.1,0,0,0.4H571h-0.1h-0.2c-0.1-0.3-0.2-0.3-0.2-0.4s-0.4-0.1-0.4-0.1s0-0.1,0-0.2l0.9-1.5
						L570.1,248.1 M566.7,245.7l1-1.6c0-0.1,0.1-0.1,0.2-0.2s0.2-0.1,0.2-0.2c0.1-0.1,0.2-0.1,0.3-0.1s0.2-0.1,0.3-0.1l1.9-0.4
						c0.2,0,0.5,0,0.5,0s0.4,0,0.6,0c0.2,0.1,0.4,0.2,0.6,0.3c0.2,0.1,0.3,0.3,0.4,0.4c0.1,0.2,0.2,0.3,0.2,0.5s0,0.3-0.1,0.4
						c-0.1,0.1-0.2,0.2-0.3,0.3s-0.3,0.1-0.4,0.2c-0.1,0-0.3,0.1-0.4,0.1c-0.1,0-0.3,0.1-0.4,0.1c-0.1,0-0.3,0.7-0.3,0.7h-0.4h-0.1
						h-0.1c0,0,0,0-0.1,0s0,0,0,0.1l-2.5,4.1c-0.1,0.1-0.1,0.2-0.2,0.2s-0.2,0.1-0.3,0.2c-0.1,0.1-0.2,0.1-0.3,0.1s-0.2,0.1-0.3,0.1
						s-0.3,0.1-0.4,0.1s-0.4,0.1-0.5,0.1s-0.4,0.1-0.5,0.1s-0.5,0-0.5,0s-0.5,0-0.8-0.1s-0.5-0.1-0.7-0.2s-0.4-0.2-0.5-0.3
						c-0.2-0.1-0.3-0.2-0.3-0.4c-0.1-0.1-0.1-0.3-0.1-0.4c0-0.1,0-0.3,0.1-0.4c0.1-0.1,0.2-0.3,0.3-0.4s0.3-0.2,0.6-0.2l0.9,0.4
						c0,0,0.1,0,0.2,0s0.1,0,0.1,0s0,0,0.1-0.1s0-0.1,0-0.1l0.9-1.4l-0.9-1.5c-0.1-0.1-0.1-0.2-0.1-0.3s0-0.2,0.1-0.2
						c0-0.1,0.1-0.1,0.2-0.2c0.1,0,0.2-0.1,0.3-0.1s0.2,0,0.3,0s0.2,0,0.3,0.1c0.1,0,0.2,0.1,0.3,0.1c0.1,0.1,0.2,0.1,0.2,0.2
						l0.2,0.6 M565.1,245.1L565.1,245.1c-0.2,0-0.3,0-0.4-0.1c-0.1,0-0.2-0.1-0.3-0.1c-0.1-0.1-0.2-0.1-0.2-0.2s-0.1-0.2-0.1-0.2
						s0-0.1,0.1-0.2s0.1-0.1,0.2-0.2s0.2-0.1,0.3-0.1s0.2,0,0.3,0s0.2,0,0.3,0.1c0.1,0,0.2,0.1,0.3,0.1c0.1,0.1,0.2,0.1,0.2,0.2
						c0,0.1,0.1,0.2,0.1,0.2s0,0.1-0.1,0.2s-0.1,0.1-0.2,0.2c-0.1,0-0.2,0.1-0.3,0.1 M570,240.8l-10.8,2.3c-0.3,0.1-0.5,0.1-0.6,0.2
						c-0.2,0.1-0.3,0.2-0.4,0.3c-0.1,0.1-0.1,0.3-0.1,0.4c0,0.1,0.1,0.3,0.2,0.5l4.7,7.7c0.1,0.2,0.2,0.3,0.4,0.4s0.3,0.2,0.5,0.3
						s0.4,0.1,0.6,0.1s0.5,0,0.7-0.1l10.9-2.4c0.3-0.1,0.5-0.1,0.6-0.2c0.2-0.1,0.3-0.2,0.3-0.3c0.1-0.1,0.1-0.3,0.1-0.4
						c0-0.1-0.1-0.3-0.2-0.5l-4.8-7.7c-0.1-0.2-0.2-0.3-0.4-0.4s-0.3-0.2-0.5-0.3s-0.4-0.1-0.6-0.1
						C570.5,240.7,570.2,240.7,570,240.8"></path>
					<path class="st25" d="M564.7,243.1c-0.1,0-0.2,0.1-0.3,0.1s-0.1,0.1-0.2,0.2c0,0.1-0.1,0.1-0.1,0.2c0,0.1,0,0.2,0.1,0.2
						c0,0.1,0.1,0.1,0.2,0.2c0.1,0.1,0.2,0.1,0.3,0.1s0.2,0.1,0.3,0.1s0.2,0,0.3,0s0.2-0.1,0.3-0.1c0.1-0.1,0.1-0.1,0.2-0.2
						c0-0.1,0.1-0.1,0.1-0.2s0-0.2-0.1-0.2s-0.1-0.1-0.2-0.2c-0.1-0.1-0.2-0.1-0.3-0.1s-0.2-0.1-0.3-0.1s0.2,0,0.2,0"></path>
					<path class="st25" d="M565.1,250.1c0,0-0.5,0-0.6,0s-0.2,0-0.3-0.1s-0.2-0.1-0.3-0.1s-0.2-0.1-0.2-0.2c0-0.1-0.1-0.2-0.1-0.2
						c0-0.1,0-0.1,0.1-0.2s0.1-0.1,0.2-0.1c0.1,0,0.2-0.1,0.2-0.1l1.1-0.2c0.1,0,0.2,0,0.2-0.1c0.1,0,0.1-0.1,0.2-0.1
						s0.1-0.1,0.1-0.1l0.1-0.1l2.8-4.6c0-0.1,0.1-0.1,0.1-0.1l0.1-0.1c0,0,0.1,0,0.2-0.1s0.2,0,0.2-0.1l1.7-0.4c0.1,0,0.2,0,0.3,0
						s0.2,0.1,0.3,0.1s0.2,0.1,0.3,0.1s0.1,0.1,0.2,0.1c0,0.1,0.1,0.1,0.1,0.2c0,0.1,0,0.1,0,0.2s-0.1,0.1-0.1,0.2
						c-0.1,0.1-0.2,0.1-0.3,0.1l-1,0.2c-0.1,0-0.2,0.1-0.3,0.1s-0.1,0.1-0.2,0.1s-0.1,0.1-0.1,0.1l-0.1,0.1l-2.8,4.5
						c0,0.1-0.1,0.1-0.1,0.1l-0.1,0.1c0,0-0.1,0.1-0.2,0.1c-0.1,0-0.1,0-0.2,0.1l-1.8,0.5 M570.6,243.3l-1.9,0.4
						c-0.1,0-0.2,0.1-0.3,0.1s-0.2,0.1-0.3,0.1c-0.1,0.1-0.2,0.1-0.2,0.2s-0.1,0.1-0.2,0.2l-1,1.6l-0.2-0.4
						c-0.1-0.1-0.1-0.2-0.2-0.2c-0.1-0.1-0.2-0.1-0.3-0.1s-0.2-0.1-0.3-0.1s0,0-0.1,0s-0.2,0.1-0.3,0.1s-0.2,0.1-0.2,0.2
						c0,0.1-0.1,0.1-0.1,0.2s0,0.2,0.1,0.3l0.9,1.5l-0.9,1.4v-0.2c0,0-0.2,0-0.3,0.5h-0.1h-0.2l-0.9-0.2c-0.2,0.1-0.4,0.1-0.6,0.2
						s-0.3,0.2-0.3,0.4c-0.1,0.1-0.1,0.3-0.1,0.4s0.1,0.3,0.1,0.4s0.2,0.3,0.3,0.4c0.2,0.1,0.3,0.2,0.5,0.3s0.4,0.1,0.7,0.2
						s0.8-0.1,0.8-0.1s0.1,0,0.2,0c0.1,0,0.3-0.1,0.5-0.1s0.4-0.1,0.7-0.1s0.3-0.1,0.4-0.1c0.1,0,0.2-0.1,0.3-0.1s0.2-0.1,0.3-0.1
						c0.1-0.1,0.2-0.1,0.3-0.2s0.2-0.1,0.2-0.2l3.1-4.9c0,0,0,0,0-0.1s0,0,0.1,0c0,0,0,0,0.1,0s0.1,0,0.1,0s-0.5,0-0.4,0
						s0.2,0,0.3-0.1c0.1,0,0.3-0.1,0.4-0.1s0.3-0.1,0.4-0.1c0.2,0,0.3-0.1,0.4-0.2s0.2-0.2,0.3-0.3s0.1-0.3,0.1-0.4
						c0-0.2,0-0.3-0.2-0.5c-0.1-0.2-0.3-0.3-0.4-0.4c-0.2-0.1-0.4-0.2-0.6-0.3c-0.2-0.1-0.4-0.1-0.6-0.1c-0.1-0.3-0.3-0.3-0.5-0.2"></path>
					<path class="st25" d="M572,247.2l-1.7,0.4c-0.1,0-0.2,0.1-0.2,0.1c0,0.1,0,0.2,0,0.2s-0.1,0.1,0,0.2c0.1,0,0.2,0.1,0.3,0
						l0.9-0.2l-0.2,1.5v0.2c-0.7,0.1-0.6,0.1-0.6,0.1s0.1,0.1,0.2,0.4h0.2h0.1h0.1c0,0,0-0.3,0.1-0.4s0,0,0-0.1l0.9-1.5l0.4,0.6
						l0.1,0.1l0.1,0.3h0.2h0.1h0.1c0-0.2,0.1-0.2,0-0.3v-0.1v-0.1l-0.6-1.2c0-0.1-0.1-0.1-0.1-0.1s-0.1-0.1-0.2-0.2H572V247.2"></path>
					<path class="st24" d="M571.1,243.1l-1.7,0.4c-0.1,0-0.2,0-0.2,0.1s-0.1,0-0.2,0.1s-0.1,0.1-0.1,0.1l-0.1,0.1l-2.8,4.6
						c0,0,0,0.1-0.1,0.1l-0.1,0.1c0,0-0.1,0.1-0.2,0.1c-0.1,0-0.1,0-0.2,0.1l-1.1,0.2c-0.1,0-0.2,0.1-0.2,0.1s-0.1,0.1-0.2,0.1
						s-0.1,0.1-0.1,0.2c0,0.1,0,0.1,0.1,0.2s0.1,0.1,0.2,0.2c0.1,0.1,0.2,0.1,0.3,0.1s0.2,0.1,0.3,0.1s0.2,0,0.3,0l1.6-0.4
						c0.1,0,0.2,0,0.2-0.1s0.1-0.1,0.2-0.1s0.1-0.1,0.1-0.1l0.1-0.1l2.8-4.5c0-0.1,0.1-0.1,0.1-0.1l0.1-0.1c0.1,0,0.1-0.1,0.2-0.1
						s0.2-0.1,0.3-0.1l1-0.2c0.1,0,0.2-0.1,0.3-0.1s0.1-0.1,0.1-0.2s0-0.1,0-0.2s0-0.1-0.1-0.2c0-0.1-0.1-0.1-0.2-0.1
						c-0.1-0.1-0.2-0.1-0.3-0.1s-0.2-0.1-0.3-0.1S571.2,243.1,571.1,243.1"></path>
					<path class="st24" d="M578.2,261.3l0.9-1.5c0,0,0,0.4,0,0.3h0.1h0.1h0.1h0.2c0.1-0.4,0.2-0.4,0.2-0.3c0.1,0,0.1,0.1,0.3,0.1
						v0.2l-1.1,1.6l0.9,0.4h0.3c0.1-0.6,0.9-0.4,0.9-0.4v0.2c0,0-0.8,0.1-0.9,0.1l-1.7,0.1h-0.2h-0.2c-0.1,0.3-0.1,0.3-0.2,0.2
						l-0.1-0.1l-0.7-1.2v-0.1v-0.1c0,0-0.1,0,0-0.7h0.1h0.2c0,0,0.1,0,0.2,0s0.1,0,0.1,0.1s0.1,0.1,0.1,0.1l0.4,0.4 M574.2,257.7
						l1-1.6c0-0.1,0.1-0.1,0.2-0.2c0.1-0.1,0.2-0.1,0.2-0.2c0.1,0,0.2-0.1,0.3-0.1s0.2-0.1,0.3-0.1l1.9-0.4c0.2,0,0.5,0,0.5,0
						s0.4,0.3,0.6,0.3c0.2,0.1,0.4,0.2,0.6,0.3s0.3,0.3,0.4,0.4c0.1,0.2,0.2,0.3,0.2,0.5s0,0.3-0.1,0.4s-0.2,0.3-0.3,0.3
						c-0.1,0.1-0.3,0.1-0.4,0.2c-0.1,0-0.3,0.1-0.4,0.1c-0.1,0-0.3,0.1-0.4,0.1s-0.3-0.6-0.3-0.6h0.1h-0.1h-0.1c0,0,0,0-0.1,0
						s0,0,0,0.1l-2.9,4.9c-0.1,0.1-0.1,0.2-0.2,0.2c-0.1,0.1-0.2,0.1-0.3,0.2c-0.1,0-0.2,0.1-0.3,0.1s-0.2,0.1-0.3,0.1
						s-0.3,0.1-0.4,0.1c-0.2,0-0.4,0.1-0.6,0.1s-0.4,0.1-0.5,0.1s0,0,0,0s-0.5,0.4-0.8,0.3s-0.5-0.1-0.7-0.2s-0.4-0.2-0.5-0.3
						c-0.2-0.1-0.3-0.3-0.3-0.4c-0.1-0.1-0.1-0.3-0.1-0.4s0-0.3,0.1-0.4s0.2-0.3,0.3-0.4s0.3-0.2,0.6-0.2h0.9c0,0,0.1,0,0.2,0
						s0.1,0,0.1,0s0,0,0.1,0s0,0,0-0.1l0.9-1.5l0,0l-0.9-1.6c-0.1-0.1-0.1-0.2-0.1-0.3c0-0.1,0-0.2,0.1-0.2c0-0.1,0.1-0.1,0.2-0.2
						c0.1,0,0.2-0.1,0.3-0.1s0.2,0,0.3,0s0.2,0,0.3,0s0.2,0.1,0.3,0.1c0.1,0.1,0.2,0.1,0.2,0.2l0.1,0.5 M573.1,257.1
						c0,0-0.5,0-0.6,0s-0.2,0-0.3-0.1c-0.1,0-0.2-0.1-0.3-0.1c-0.1-0.1-0.2-0.1-0.2-0.2s-0.1-0.2-0.1-0.2s0-0.2,0.1-0.2
						s0.1-0.1,0.2-0.2c0.1-0.1,0.2-0.1,0.3-0.1s0.2,0,0.3,0s0.2,0,0.3,0.1c0.1,0,0.2,0.1,0.3,0.1c0.1,0.1,0.2,0.1,0.2,0.2
						s0.1,0.2,0.1,0.2c0,0.1,0,0.1-0.1,0.2S573.2,256.9,573.1,257.1c-0.1-0.1-0.2,0-0.3,0 M577.5,253l-10.9,2.4
						c-0.3,0-0.5,0.1-0.6,0.2c-0.2,0.1-0.3,0.2-0.4,0.3c-0.1,0.1-0.1,0.3-0.1,0.4c0,0.2,0.1,0.3,0.2,0.5l4.8,7.8
						c0.1,0.2,0.2,0.3,0.4,0.5c0.2,0.1,0.3,0.2,0.5,0.3c0.2,0.1,0.4,0.1,0.6,0.1s0.5,0,0.7-0.1l11-2.4c0.3-0.1,0.5-0.1,0.6-0.2
						s0.3-0.2,0.3-0.3c0.1-0.1,0.1-0.3,0.1-0.4s-0.1-0.3-0.2-0.5l-4.8-7.8c-0.1-0.2-0.3-0.3-0.4-0.5s-0.3-0.2-0.5-0.3
						s-0.4-0.1-0.6-0.1C578,253,577.8,253,577.5,253"></path>
					<path class="st25" d="M572.2,256.1c-0.1,0-0.2,0.1-0.3,0.1s-0.1,0.1-0.2,0.2s-0.1,0.1-0.1,0.2s0,0.2,0.1,0.2s0.1,0.1,0.2,0.2
						c0.1,0.1,0.2,0.1,0.3,0.1s0.2,0.1,0.3,0.1s0.2,0,0.3,0s0.2-0.1,0.3-0.1s0.1-0.1,0.2-0.2s0.1-0.1,0.1-0.2s0-0.2-0.1-0.2
						s-0.1-0.1-0.2-0.2c-0.1-0.1-0.2-0.1-0.3-0.1s-0.2-0.1-0.3-0.1S572.1,256.1,572.2,256.1"></path>
					<path class="st25" d="M573.1,263.1c0,0-0.3,0-0.4,0c-0.1,0-0.2,0-0.3-0.1c-0.1,0-0.2-0.1-0.3-0.1c-0.1-0.1-0.2-0.1-0.2-0.2
						s-0.1-0.2-0.1-0.2c0-0.1,0-0.1,0.1-0.2s0.1-0.1,0.2-0.1c0.1,0,0.2-0.1,0.2-0.1l1.1-0.3c0.1,0,0.2,0,0.2-0.1s0.1,0,0.2-0.1
						s0.1-0.1,0.1-0.1l0.1-0.1l2.7-4.6l0.1-0.1l0.1-0.1c0,0,0.1,0,0.2-0.1c0.1,0,0.2,0,0.2-0.1l1.7-0.4c0.1,0,0.2,0,0.3,0
						s0.2,0,0.3,0.1c0.1,0,0.2,0.1,0.3,0.1s0.1,0.1,0.2,0.1c0,0,0.1,0.1,0.1,0.2s0,0.1,0,0.2s-0.1,0.1-0.1,0.2s-0.2,0.1-0.3,0.1
						l-1,0.2c-0.1,0-0.2,0-0.3,0.1c-0.1,0-0.1,0-0.2,0.1c-0.1,0.1-0.1,0.1-0.2,0.1l-0.1,0.1l-2.7,4.5l-0.1,0.1l-0.1,0.1
						c0,0-0.1,0.1-0.2,0.1c-0.1,0-0.1,0-0.2,0.1L573.1,263.1 M578.1,255.2l-1.9,0.4c-0.1,0-0.2,0-0.3,0.1s-0.2,0.1-0.3,0.1
						s-0.2,0.1-0.2,0.2c-0.1,0.1-0.1,0.1-0.2,0.2l-1,1.6l-0.2-0.4c-0.1-0.1-0.1-0.2-0.2-0.2c-0.1-0.1-0.2-0.1-0.3-0.1s-0.5,0-0.6,0
						s-0.2,0-0.3,0s-0.2,0.1-0.3,0.1s-0.2,0.1-0.2,0.2s-0.1,0.1-0.1,0.2s0,0.2,0.1,0.3l0.9,1.5l0,0l-0.9,1.4v0.3h0.2h-0.1H572h-0.9
						c-0.2,0-0.4,0.1-0.6,0.2s-0.3,0.2-0.3,0.4c-0.1,0.1-0.1,0.3-0.1,0.4s0.1,0.3,0.1,0.4s0.2,0.3,0.3,0.4c0.2,0.1,0.3,0.2,0.5,0.3
						c0.2,0.1,0.4,0.1,0.7,0.2s0.8-0.3,0.8-0.3s-0.2,0-0.1,0s0.3-0.1,0.5-0.1s0.4-0.1,0.6-0.1s0.3-0.1,0.4-0.1s0.2,0,0.3-0.1
						s0.2-0.1,0.3-0.1s0.2-0.1,0.3-0.2s0.2-0.1,0.2-0.2l2.9-4.9c0,0,0,0,0-0.1s0,0,0.1,0s0,0,0.1,0s0.1,0,0.1,0s-0.1,0,0,0
						s0.2,0,0.3-0.1c0.1,0,0.3-0.1,0.4-0.1s0.3-0.1,0.4-0.1c0.2,0,0.3-0.1,0.4-0.2s0.2-0.2,0.3-0.3c0.1-0.1,0.1-0.3,0.1-0.4
						s0-0.3-0.2-0.5c-0.1-0.2-0.3-0.3-0.4-0.4s-0.4-0.2-0.6-0.3s-0.4-0.1-0.6-0.1c0-0.1-0.2-0.1-0.4-0.1"></path>
					<path class="st25" d="M579.4,259.1L579.4,259.1L579.4,259.1h-0.2c-0.1,0.5,0,0.5,0,0.6l-0.9,1.5l-0.4-0.6l-0.1-0.1
						c0,0-0.1,0-0.1-0.1s-0.2-0.3-0.2-0.3h-0.2h-0.1c0,0.3-0.1,0.3-0.1,0.4s0,0.1,0,0.1v0.1l0.8,1.2l0.1,0.1l0.2,0.1h0.2h0.2
						l1.7-0.4c0.1,0,0.2-0.1-0.2-0.1v-0.2c0.4-0.1,0.3-0.1,0.2-0.3H580l-0.9,0.3l2-1.6c0,0,0-0.1,0-0.2s-0.1-0.1-0.1-0.1
						s-0.1-0.1-0.2-0.1c-0.1,0.2-0.2,0.2-0.3,0.2"></path>
					<path class="st24" d="M578,255.9l-1.7,0.4c-0.1,0-0.2,0-0.2,0.1s-0.1,0-0.2,0.1s-0.1,0-0.1,0.1l-0.1,0.1l-2.8,4.7l-0.1,0.1
						l-0.1,0.1c0,0-0.1,0.1-0.2,0.1c-0.1,0-0.1,0-0.2,0.1l-1.1,0.3c-0.1,0-0.2,0-0.2,0.1s-0.1,0.1-0.2,0.1s-0.1,0.1-0.1,0.2
						s0,0.1,0.1,0.2c0,0.1,0.1,0.2,0.2,0.2c0.1,0.1,0.2,0.1,0.3,0.1s0.2,0.1,0.3,0.1s0.2,0,0.3,0l1.6-0.4c0.1,0,0.2,0,0.2-0.1
						s0.1,0,0.2-0.1s0.1-0.1,0.1-0.1l0.1-0.1l2.8-4.6c0-0.1,0.1-0.1,0.1-0.1s0.1-0.1,0.2-0.1s0.1-0.1,0.2-0.1c0.1,0,0.2,0,0.3-0.1
						l1-0.2c0.1,0,0.2-0.1,0.3-0.1s0.1-0.1,0.1-0.2s0-0.1,0-0.2s0-0.1-0.1-0.2s-0.1-0.1-0.2-0.1s-0.2-0.1-0.3-0.1s-0.2-0.1-0.3-0.1
						S578.1,255.9,578,255.9"></path>
				</g>
				<path class="st26" d="M634.5,334.3c-0.1,0-0.1,0-0.2,0.1c-0.1,0.1-0.1,0.1-0.1,0.1l-0.1,0.1c0,0-0.1,0.1-0.1,0.2l-1.7,3.5
					c0,0,0,0.1-0.1,0.1s0,0.1-0.1,0.1v0.1c0,0,0,0.1,0,0.2s0.1,0.1,0.2,0.2c0.1,0.1,0.2,0.1,0.3,0.1s0.2,0,0.3,0s0.2,0,0.3,0l2-0.5
					l1.5,2.7l0.5,0.9c0,0.1,0.1,0.1,0.2,0.2c0.1,0.1,0.1,0.1,0.2,0.1c0.1,0,0.2,0,0.3,0.1s0.2,0,0.3,0l1.4-0.3
					c0.1,0,0.2-0.1,0.3-0.1s0.1-0.1,0.2-0.2c0-0.1,0.1-0.1,0.1-0.2s0-0.1,0-0.2l-0.5-0.9l-1.5-2.7l2-0.5c0.1,0,0.2,0,0.2-0.1
					c0.1,0,0.1-0.1,0.2-0.2c0.1-0.1,0.1-0.1,0.1-0.2s0-0.1-0.1-0.2c0-0.1-0.1-0.1-0.1-0.2c0,0-0.1-0.1-0.2-0.1
					c-0.1,0-0.1-0.1-0.2-0.1c-0.1,0-0.1,0-0.2-0.1l-4.6-2.1c-0.1,0-0.2-0.1-0.2-0.1s-0.1,0-0.2-0.1c-0.1,0-0.1,0-0.2,0
					C634.6,334.3,634.5,334.3,634.5,334.3"></path>
				<path class="st26" d="M438.6,111.9l-1.2,0.2c-0.1,0-0.2,0-0.2,0.1s-0.1,0.1-0.1,0.1v0.2v0.2l1.5,2.9l-1.9,0.4
					c-0.1,0-0.2,0-0.2,0.1c-0.1,0-0.1,0.1-0.2,0.1c0,0.1-0.2,0.2-0.2,0.2s0,0.2,0,0.3c0,0.1,0.1,0.1,0.1,0.1l0.1,0.1
					c0,0,0.1,0.1,0.2,0.1s0.1,0,0.2,0.1l4.4,1.7c0.1,0,0.1,0.1,0.2,0.1s0.1,0,0.2,0.1c0.1,0,0.1,0,0.2,0s0.1,0,0.2,0s0.1,0,0.2-0.1
					l0.1-0.1l0.1-0.1c0,0,0-0.1,0.1-0.1l1.5-2.9c0,0,0-0.1,0.1-0.1s0-0.1,0-0.1v-0.1v-0.1c0-0.1-0.1-0.1-0.2-0.2s-0.1-0.1-0.2-0.1
					s-0.2,0-0.3,0c-0.1,0-0.5,0-0.5,0l-1.9,0.4l-1.8-2.9c0-0.1-0.1-0.1-0.2-0.1s-0.1-0.1-0.2-0.1s-0.2,0-0.3-0.1s-0.1-0.3-0.2-0.3"></path>
			</g>
		</g>
	</g>
	<g>
		<path class="st27" d="M869.5,114.2l0.3,0.5l-1.6,0.4l0.5,1l-1.6,0.4l0.5,1l-1.6,0.4l0.5,1l-1.6,0.4l0.5,1l-2.4,0.6l-0.3-0.5
			l1.6-0.4l-0.5-1l1.6-0.4l-0.5-1l1.6-0.4l-0.5-1l1.6-0.4l-0.5-1L869.5,114.2 M863.8,122.4l8.8-2.3c0.1,0,0.1-0.1,0.1-0.1
			s0,0,0.1-0.1s0,0,0.1-0.1c0-0.1,0-0.3,0-0.4s-0.1-0.2-0.1-0.3l-1.9-5.7c-0.1-0.1-0.2-0.2-0.2-0.3c-0.1-0.1-0.2-0.1-0.4-0.2
			c-0.1-0.1-0.3-0.1-0.4,0c-0.1,0-0.4,0-0.6,0.1l-8.9,2.3c-0.2,0.1-0.4,0.1-0.5,0.2s-0.3,0.2-0.3,0.2c-0.1,0.1-0.1,0.2-0.1,0.3
			c0,0.1,0,0.2,0.1,0.3l2.7,5.5c0.1,0.1,0.2,0.3,0.2,0.3c0.1,0.1,0.2,0.1,0.4,0.2c0.1,0.1,0.3,0.1,0.4,0
			C863.3,122.4,863.8,122.4,863.8,122.4"></path>
		<polyline class="st21" points="863.2,121 865.5,120.4 865,119.4 866.6,119 866.1,118 867.7,117.6 867.2,116.6 868.7,116.1 
			868.2,115.1 869.8,114.7 869.5,114.2 867.3,114.8 867.7,115.8 866.1,116.3 866.6,117.2 865,117.7 865.6,118.7 864,119.1 
			864.4,120.1 862.9,120.5 863.2,121 		"></polyline>
	</g>
	<g>
		<path class="st27" d="M732.7,57.1l-0.1-0.4l1.1-0.2l-0.3-0.7l1.1-0.2l-0.3-0.7l1.1-0.2L735,54l1.1-0.2l-0.3-0.7l1.6-0.3l0.1,0.3
			l-1.1,0.2l0.3,0.7l-1.1,0.2l0.3,0.7l-1.1,0.2l0.3,0.7L734,56l0.3,0.7L732.7,57.1 M737,51.5l-6,1.2c-0.1,0-0.1,0-0.1,0s0,0-0.1,0.1
			s0,0-0.1,0.1c0,0.1,0,0.2,0,0.3s0,0.1,0.1,0.2l1,4c0,0.1,0.1,0.1,0.1,0.2c0,0.1,0.1,0.1,0.2,0.1c0.1,0,0.2,0,0.3,0s0.2,0,0.4,0
			l6.1-1.2c0.1,0,0.2,0,0.3-0.1c0.1,0,0.2-0.1,0.2-0.1s0.1-0.1,0.1-0.2c0-0.1,0-0.1,0-0.2l-1.6-4c0-0.1-0.1-0.2-0.1-0.2
			s-0.1-0.1-0.2-0.1c-0.1,0-0.2,0-0.3,0s-0.7,0-0.7,0"></path>
		<polyline class="st21" points="737.3,52.6 735.8,52.9 736,53.7 734.9,53.8 735.2,54.6 734.2,54.8 734.5,55.5 733.4,55.8 
			733.7,56.5 732.6,56.7 732.7,57.1 734.3,56.7 734.1,56 735.1,55.8 734.8,55.1 735.9,54.8 735.6,54.1 736.7,53.9 736.5,53.2 
			737.5,53 737.3,52.6 		"></polyline>
	</g>
	<path class="st26" d="M917.3,193.2c0,0.1,0,0.1,0.1,0.2c0.1,0.1,0.1,0.1,0.1,0.1l0.1,0.1c0,0,0.1,0.1,0.2,0.1l3.8,1
		c0,0,0.1,0,0.1,0.1s0.1,0,0.1,0.1h0.1c0,0,0.1,0,0.2,0s0.1-0.1,0.2-0.2c0.1-0.1,0.1-0.2,0-0.3c0-0.1,0-0.2-0.1-0.3
		c0-0.1,0-0.2-0.1-0.3l-0.9-2l2.5-2l0.8-0.6c0.1,0,0.1-0.1,0.2-0.2c0.1-0.1,0.1-0.1,0.1-0.2s0-0.2,0-0.3c0.1-0.1,0-0.2-0.1-0.3
		l-0.5-1.3c0-0.1-0.1-0.2-0.2-0.3c0-0.1-0.1-0.1-0.2-0.2c-0.1,0-0.1-0.1-0.2-0.1c-0.1,0-0.1,0-0.2,0l-0.8,0.6l-2.5,2l-0.9-2
		c0-0.1,0-0.2-0.1-0.2c0-0.1-0.1-0.1-0.2-0.2s-0.1-0.1-0.2-0.1c-0.1,0-0.1,0-0.2,0.1c-0.1,0-0.1,0.1-0.2,0.1c0,0-0.1,0.1-0.1,0.2
		c0,0.1-0.1,0.1-0.1,0.2c0,0.1,0,0.1-0.1,0.2l-1.2,5c0,0.1-0.1,0.2-0.1,0.2s0,0.1-0.1,0.2c0,0.1,0,0.1,0,0.2
		C917.3,193.1,917.3,193.2,917.3,193.2"></path>
	<g>
		<path class="st27" d="M594.8,188.7l-0.3-0.7l1.9-0.4l-0.5-1.3l1.9-0.4l-0.5-1.3l1.9-0.4l-0.5-1.3l1.9-0.4l-0.5-1.3l2.8-0.6
			l0.3,0.6l-1.9,0.3l0.5,1.3l-1.9,0.4l0.5,1.3l-1.9,0.4l0.5,1.3l-1.9,0.4l0.5,1.3L594.8,188.7 M602.2,179.1l-10.4,2.1
			c-0.1,0-0.2,0.1-0.2,0.1s0,0-0.1,0.1c-0.1,0.2,0,0-0.1,0.2c-0.1,0.1-0.1,0.4,0,0.5c0,0.2,0.1,0.2,0.1,0.4l1.8,7
			c0.1,0.2,0.2,0.3,0.3,0.4s0.3,0.2,0.4,0.3c0.2,0.1,0.3,0.1,0.5,0.1s0.4,0,0.7-0.1l10.5-2.1c0.3-0.1,0.4-0.1,0.6-0.2
			c0.2-0.1,0.3-0.2,0.4-0.3c0.1-0.1,0.2-0.3,0.2-0.3c0-0.2,0-0.3-0.1-0.4l-2.7-6.9c-0.1-0.2-0.2-0.3-0.3-0.4
			c-0.1-0.1-0.3-0.2-0.4-0.3c-0.2-0.1-0.3-0.1-0.5-0.1C602.7,179.1,602.1,179.1,602.2,179.1"></path>
		<polyline class="st21" points="602.7,180.9 600.1,181.4 600.5,182.7 598.6,183 599.1,184.3 597.3,184.7 597.8,185.9 595.9,186.4 
			596.4,187.7 594.6,188 594.8,188.7 597.5,188.1 597.1,186.8 599,186.4 598.5,185.2 600.3,184.8 599.8,183.5 601.7,183.1 
			601.2,181.8 603,181.5 602.7,180.9 		"></polyline>
	</g>
	<g>
		<path class="st27" d="M646,293.1l-0.3-0.7l1.9-0.4l-0.5-1.3l1.9-0.4l-0.5-1.3l1.9-0.4l-0.5-1.3l1.9-0.4l-0.5-1.3l2.8-0.6l0.3,0.6
			l-1.9,0.3l0.5,1.3l-1.9,0.4l0.5,1.3l-1.9,0.4l0.5,1.3l-1.9,0.4l0.5,1.3L646,293.1 M653.3,283.7l-10.4,2.1c-0.1,0-0.2,0.1-0.2,0.1
			s0,0-0.1,0.1c-0.1,0.2,0,0-0.1,0.2c-0.1,0.1-0.1,0.4,0,0.5c0,0.2,0.1,0.2,0.1,0.4l1.8,7c0.1,0.2,0.2,0.3,0.3,0.4
			c0.1,0.2,0.3,0.2,0.4,0.3s0.3,0.1,0.5,0.1s0.4,0,0.7-0.1l10.5-2.1c0.3-0.1,0.4-0.1,0.6-0.2c0.2-0.1,0.3-0.2,0.4-0.3
			s0.2-0.3,0.2-0.3c0-0.2,0-0.3-0.1-0.4l-2.7-6.9c-0.1-0.2-0.2-0.3-0.3-0.4s-0.3-0.2-0.4-0.3c-0.2-0.1-0.3-0.1-0.5-0.1
			C653.8,283.7,653.6,283.7,653.3,283.7"></path>
		<polyline class="st21" points="653.9,285.4 651.2,285.9 651.6,287.1 649.8,287.5 650.3,288.8 648.4,289.1 648.9,290.4 
			647.1,290.8 647.6,292.1 645.7,292.4 646,293.1 648.7,292.5 648.3,291.2 650.1,290.8 649.6,289.6 651.5,289.2 651,287.9 
			652.8,287.6 652.4,286.3 654.2,286 653.9,285.4 		"></polyline>
	</g>
	<g>
		<path class="st27" d="M892.4,293.1l-0.3-0.7l1.8-0.6l-0.6-1.2l1.8-0.6l-0.6-1.2l1.8-0.6l-0.6-1.2l1.8-0.6l-0.6-1.2l2.7-0.8
			l0.3,0.6l-1.8,0.5l0.6,1.2l-1.8,0.6l0.6,1.2l-1.8,0.6l0.6,1.2l-1.8,0.6l0.6,1.2L892.4,293.1 M898.8,283.1l-10.1,3
			c-0.1,0.1-0.2,0.1-0.2,0.1s0,0-0.1,0.1c-0.1,0.2,0,0-0.1,0.2c-0.1,0.1,0,0.4,0,0.5c0,0.2,0.1,0.2,0.2,0.4l2.4,6.8
			c0.1,0.2,0.2,0.2,0.3,0.4s0.3,0.1,0.4,0.2c0.2,0.1,0.3,0.1,0.5,0c0.2,0,0.4,0,0.7-0.1l10.3-3.1c0.2-0.1,0.4-0.1,0.6-0.2
			c0.2-0.1,0.3-0.2,0.4-0.3c0.1-0.1,0.1-0.3,0.1-0.4c0-0.2,0-0.3-0.1-0.4l-3.3-6.7c-0.1-0.2-0.2-0.3-0.3-0.4s-0.3-0.1-0.4-0.2
			c-0.2-0.1-0.3-0.1-0.5,0C899.3,283,899.1,283.1,898.8,283.1"></path>
		<polyline class="st21" points="899.5,284.7 896.9,285.4 897.4,286.6 895.6,287.1 896.2,288.4 894.4,288.9 895,290.1 893.2,290.7 
			893.9,291.9 892,292.4 892.4,293.1 895,292.3 894.4,291 896.3,290.4 895.6,289.3 897.5,288.7 896.8,287.5 898.7,287 898.1,285.7 
			899.9,285.2 899.5,284.7 		"></polyline>
	</g>
	<g>
		<path class="st27" d="M570.7,348.8L570.7,348.8h-0.2l-0.1-0.1v-0.1l-0.1-1.6c0-0.1,0-0.1,0-0.2s0.1-0.1,0.1-0.2s0.1-0.1,0.2-0.2
			c0.1-0.1,0.2-0.1,0.3-0.1l0.5-0.1l0.5-0.1c0.1,0,0.3,0,0.4,0c0.1,0,0.2,0,0.4,0.1c0.1,0,0.2,0.1,0.3,0.1s0.1,0.1,0.2,0.1l1.5,1.3
			l0.1,0.1v0.1c0,0,0,0.1-0.1,0.1s-0.1,0-0.1,0.1h-0.1h-0.1h-0.1c0,0-0.1,0-0.1-0.1l-1.3-1.2h-0.2l2.3,2.2l-1,0.2l1,1.8v0.1v0.1
			c0,0,0,0.1-0.1,0.1s-0.1,0-0.1,0h-0.1h-0.1c0,0-0.1,0-0.1-0.1l-0.1-0.1l-1-1.8h-0.2l1,1.8v0.1v0.1l-0.1,0.1H574h-0.1h-0.1
			c0,0-0.1,0-0.1-0.1l-0.1-0.1l-1-1.8l-1,0.2l-0.3-2.6h-0.2l0.1,1.5v0.1v0.1c0,0,0,0-0.1,0.1C570.7,348.8,570.7,348.8,570.7,348.8
			 M577.5,347.7L577.5,347.7h-0.2c0,0-0.1,0-0.1-0.1l-0.1-0.1l-0.9-1.6c0-0.1-0.1-0.2-0.1-0.3s0-0.2,0.1-0.3
			c0.1-0.1,0.1-0.1,0.2-0.2c0.1-0.1,0.2-0.1,0.4-0.1l1.6-0.3c0.1,0,0.3,0,0.4,0c0.1,0,0.3,0.1,0.4,0.1c0.1,0,0.2,0.1,0.3,0.2
			s0.2,0.1,0.2,0.2l0.9,1.6v0.1v0.1c0,0,0,0.1-0.1,0.1h-0.1h-0.1h-0.1c0,0-0.1,0-0.1-0.1s-0.1-0.1-0.1-0.1l-0.8-1.4H579l2.2,4
			c0,0.1,0,0.1,0,0.1v0.1l-0.1,0.1c0,0-0.1,0-0.1,0.1c-0.1,0-0.1,0-0.2,0c-0.1,0-0.1,0-0.2,0c-0.1,0-0.1,0-0.1-0.1s-0.1-0.1-0.1-0.1
			l-1.3-2.3h-0.2l1.3,2.3c0,0.1,0,0.1,0,0.1v0.1l-0.1,0.1c0,0-0.1,0-0.1,0.1c-0.1,0-0.1,0-0.2,0c-0.1,0-0.1,0-0.2,0
			c0,0-0.1,0-0.1-0.1l-0.1-0.1l-2.2-4H577l0.8,1.4v0.1v0.1c0,0,0,0.1-0.1,0.1C577.6,347.7,577.5,347.7,577.5,347.7 M576.8,350.7
			l-3.4-6.2l0.9-0.2l3.4,6.2L576.8,350.7 M571.2,346.1c-0.1,0-0.2,0-0.3,0s-0.2,0-0.3-0.1s-0.2-0.1-0.3-0.1s-0.1-0.1-0.2-0.2
			c-0.1-0.1,0-0.1,0-0.2s0-0.1,0.1-0.2s0.1-0.1,0.2-0.2c0.1-0.1,0.2-0.1,0.3-0.1s0.2,0,0.3,0s0.2,0,0.3,0.1s0.2,0.1,0.3,0.1
			s0.1,0.1,0.2,0.2c0.1,0.1,0,0.1,0,0.2s0,0.1-0.1,0.2c0,0.1-0.1,0.1-0.2,0.2C571.4,346.1,571.3,346,571.2,346.1 M577.5,344.8
			c-0.1,0-0.2,0-0.3,0s-0.2,0-0.3-0.1s-0.2-0.1-0.3-0.1s-0.1-0.1-0.2-0.2c-0.1-0.1,0-0.1,0-0.2s0-0.1,0.1-0.2c0-0.1,0.1-0.1,0.2-0.2
			c0.1,0,0.2-0.1,0.3-0.1s0.2,0,0.3,0s0.2,0,0.3,0.1s0.2,0.1,0.3,0.1s0.1,0.1,0.2,0.2c0.1,0.1,0,0.1,0,0.2s0,0.1-0.1,0.2
			s-0.1,0.1-0.2,0.2C577.7,344.8,577.6,344.8,577.5,344.8 M578.3,341.9l-10.9,2.1c-0.3,0.1-0.5,0.1-0.6,0.2
			c-0.2,0.1-0.3,0.2-0.4,0.3c-0.1,0.1-0.1,0.2-0.1,0.4c0,0.1,0,0.3,0.1,0.5l4,7.3c0.1,0.2,0.2,0.3,0.3,0.4s0.3,0.2,0.5,0.3
			s0.4,0.1,0.6,0.1s0.5,0,0.7-0.1l11.1-2.2c0.3-0.1,0.5-0.1,0.6-0.2s0.3-0.2,0.4-0.3c0.1-0.1,0.1-0.2,0.1-0.4c0-0.2-0.1-0.3-0.1-0.5
			l-4-7.3c-0.1-0.2-0.2-0.3-0.3-0.4s-0.3-0.2-0.5-0.3s-0.4-0.1-0.6-0.1C578.8,341.8,578.5,341.8,578.3,341.9"></path>
		<polyline class="st21" points="574.3,344.4 573.5,344.6 576.8,350.7 577.7,350.6 574.3,344.4 		"></polyline>
		<path class="st21" d="M570.7,345c-0.1,0-0.2,0.1-0.3,0.1s-0.1,0.1-0.2,0.2c-0.1,0.1-0.1,0.1-0.1,0.2s0,0.1,0,0.2s0.1,0.1,0.2,0.2
			c0.1,0.1,0.2,0.1,0.3,0.1s0.2,0.1,0.3,0.1s0.2,0,0.3,0s0.2-0.1,0.3-0.1s0.1-0.1,0.2-0.2c0-0.1,0.1-0.1,0.1-0.2s0-0.1,0-0.2
			s-0.1-0.1-0.2-0.2c-0.1-0.1-0.2-0.1-0.3-0.1s-0.2-0.1-0.3-0.1S570.8,345,570.7,345"></path>
		<path class="st21" d="M571.8,346.1l-0.5,0.1l-0.5,0.1c-0.1,0-0.3,0.1-0.3,0.1c-0.1,0.1-0.2,0.1-0.2,0.2s-0.1,0.1-0.1,0.2
			s0,0.1,0,0.2l0.1,1.6c0,0.1,0,0.1,0,0.1l0.1,0.1h0.1h0.1h0.1c0,0,0,0,0.1-0.1c0,0,0,0,0-0.1s0-0.1,0-0.1l-0.1-1.5h0.2l0.3,2.6
			l1-0.2l1,1.8c0,0,0,0.1,0.1,0.1s0.1,0.1,0.1,0.1h0.1h0.1h0.1c0,0,0.1,0,0.1-0.1s0-0.1,0-0.1v-0.1l-1-1.8h0.2l1,1.8
			c0,0,0,0.1,0.1,0.1s0.1,0.1,0.1,0.1h0.1h0.1h0.1c0,0,0.1,0,0.1-0.1v-0.1V351l-1-1.8l1-0.2l-2.3-2.2h0.2l1.3,1.2l0.1,0.1h0.1h0.1
			h0.1c0,0,0.1,0,0.1-0.1s0.1-0.1,0.1-0.1v-0.1c0,0,0-0.1-0.1-0.1l-1.5-1.3c0,0-0.1-0.1-0.2-0.1c-0.1,0-0.2-0.1-0.3-0.1
			S572.1,346.1,571.8,346.1C572.1,346.1,572,346.1,571.8,346.1"></path>
		<path class="st21" d="M578.4,344.8l-1.6,0.3c-0.1,0-0.3,0.1-0.4,0.1c-0.1,0-0.2,0.1-0.2,0.2s-0.1,0.2-0.1,0.3s0,0.2,0.1,0.3
			l0.9,1.6c0,0,0,0.1,0.1,0.1c0,0,0.1,0,0.1,0.1s0.1,0,0.1,0h0.1h0.1c0,0,0.1,0,0.1-0.1v-0.1v-0.1l-0.8-1.4h0.2l2.2,4
			c0,0.1,0.1,0.1,0.1,0.1l0.1,0.1c0,0,0.1,0,0.2,0c0.1,0,0.1,0,0.2,0c0.1,0,0.1,0,0.1-0.1l0.1-0.1V350v-0.1l-1.3-2.3h0.2l1.3,2.3
			c0,0.1,0.1,0.1,0.1,0.1l0.1,0.1c0.1,0,0.1,0,0.2,0c0.1,0,0.1,0,0.2,0c0.1,0,0.1,0,0.1-0.1s0.1-0.1,0.1-0.1v-0.1v-0.1l-2.2-4h0.2
			l0.8,1.4c0,0,0,0.1,0.1,0.1s0.1,0,0.1,0.1h0.1h0.1h0.1c0,0,0.1,0,0.1-0.1v-0.1V347l-0.9-1.6c0-0.1-0.1-0.2-0.2-0.2
			c-0.1-0.1-0.2-0.1-0.3-0.2s-0.3-0.1-0.4-0.1C578.7,344.8,578.5,344.8,578.4,344.8"></path>
		<path class="st21" d="M576.9,343.8c-0.1,0-0.2,0.1-0.3,0.1s-0.1,0.1-0.2,0.2c0,0.1-0.1,0.1-0.1,0.2s0,0.1,0,0.2s0.1,0.1,0.2,0.2
			c0.1,0.1,0.2,0.1,0.3,0.1s0.2,0.1,0.3,0.1s0.2,0,0.3,0s0.2-0.1,0.3-0.1s0.1-0.1,0.2-0.2c0-0.1,0.1-0.1,0.1-0.2s0-0.1,0-0.2
			s-0.1-0.1-0.2-0.2c-0.1-0.1-0.2-0.1-0.3-0.1s-0.2-0.1-0.3-0.1C577.2,343.8,577,343.8,576.9,343.8"></path>
	</g>
</g>
<g id="nopointer-ground">
	<text transform="matrix(0.9856 -0.1693 0.1693 0.9856 43.7651 272.951)" class="st21 st22 st23">Митний склад </text>
	<text transform="matrix(0.9856 -0.1693 0.1693 0.9856 46.1787 282.2776)" class="st21 st22 st23">під накриттям</text>
	<text transform="matrix(0.9855 -0.1694 0.1694 0.9855 125.601 398.8702)" class="st21 st22 st28">Зона </text>
	<text transform="matrix(0.9855 -0.1694 0.1694 0.9855 117.0017 408.4665)" class="st21 st22 st28">очікування</text>
	<text transform="matrix(0.9855 -0.1694 0.1694 0.9855 183.9346 387.7225)" class="st21 st22 st28">Зона </text>
	<text transform="matrix(0.9855 -0.1694 0.1694 0.9855 175.3351 397.3178)" class="st21 st22 st28">очікування</text>
	<text transform="matrix(0.9856 -0.1693 0.1693 0.9856 322.8289 164.4872)" class="st21 st22 st23">RING WOK CAFE</text>
	<text transform="matrix(0.9856 -0.1693 0.1693 0.9856 482.4136 130.2537)" class="st21 st22 st23">БАНК</text>
	<text transform="matrix(0.9856 -0.1693 0.1693 0.9856 648.3671 95.8794)" class="st21 st22 st23">Регіональний </text>
	<text transform="matrix(0.9856 -0.1693 0.1693 0.9856 645.5819 104.475)" class="st21 st22 st23">сервісний центр</text>
	<text transform="matrix(0.9856 -0.1693 0.1693 0.9856 515.6221 179.9238)" class="st21 st22 st23">Зона</text>
	<text transform="matrix(0.9856 -0.1693 0.1693 0.9856 506.1354 189.6716)" class="st21 st22 st23">очікування</text>
	<g>
		
			<rect x="523.9" y="111.6" transform="matrix(0.9848 -0.1736 0.1736 0.9848 -12.1813 95.4637)" class="st21" width="31.3" height="11.4"></rect>
		
			<image style="overflow:visible;" width="250" height="250" xlink:href="../assets/img/logo_fav.png" transform="matrix(0.1328 -2.340746e-02 2.340746e-02 0.1328 520.359 103.8078)">
		</image>
	</g>
	<text transform="matrix(0.9856 -0.1693 0.1693 0.9856 759.403 125.6273)" class="st21 st22 st23">Кав’ярня</text>
	<text transform="matrix(0.9856 -0.1693 0.1693 0.9856 546.8602 310.6226)" class="st21 st22 st23">Технічне</text>
	<text transform="matrix(0.9856 -0.1693 0.1693 0.9856 542.0054 319.5746)" class="st21 st22 st23">приміщення</text>
	<text transform="matrix(0.9825 -0.1865 0.1865 0.9825 773.938 283.3536)" class="st21 st22 st23">Виставковий  </text>
	<text transform="matrix(0.9825 -0.1865 0.1865 0.9825 766.2734 296.3297)" class="st21 st22 st23">зал Auto West Group</text>
	<text transform="matrix(0.9791 -0.2036 0.2036 0.9791 912.2103 251.4813)" class="st21 st22 st29">Виставковий  </text>
	<text transform="matrix(0.9791 -0.2036 0.2036 0.9791 910.9362 262.0495)" class="st21 st22 st30">зал Auto West Group</text>
	<text transform="matrix(0.9856 -0.1693 0.1693 0.9856 493.2644 323.5476)" class="st21 st22 st31">Технічне</text>
	<text transform="matrix(0.9856 -0.1693 0.1693 0.9856 489.1977 332.3633)" class="st21 st22 st31">приміщення</text>
	<text transform="matrix(0.5419 0.8405 -0.8405 0.5419 817.5281 103.7275)" class="st21 st22 st28">Регіональний </text>
	<text transform="matrix(0.5419 0.8405 -0.8405 0.5419 808.5272 104.5321)" class="st21 st22 st28">сервісний центр</text>
	<text transform="matrix(0.9816 -0.1908 0.1908 0.9816 649.9578 221.1244)"><tspan x="0" y="0" class="st21 st22 st32">Виставковий </tspan><tspan x="0" y="9.6" class="st21 st22 st32">зал AWG Cars</tspan></text>
</g>
</svg>