<?xml version="1.0" encoding="UTF-8"?>
<!DOCTYPE svg PUBLIC "-//W3C//DTD SVG 1.1//EN" "http://www.w3.org/Graphics/SVG/1.1/DTD/svg11.dtd">
<!-- Creator: CorelDRAW 2017 -->
<svg xmlns="http://www.w3.org/2000/svg" xml:space="preserve" width="70" height="70" version="1.1" style="shape-rendering:geometricPrecision; text-rendering:geometricPrecision; image-rendering:optimizeQuality; fill-rule:evenodd; clip-rule:evenodd"
viewBox="0 0 1671 1673"
 xmlns:xlink="http://www.w3.org/1999/xlink">
 <defs>
  <style type="text/css">
   <![CDATA[
    .fil0 {fill: #df1d27}
   ]]>
  </style>
 </defs>
 <g id="Слой_x0020_1">
  <metadata id="CorelCorpID_0Corel-Layer"/>
  <path id="Combined-Shape" class="fil0" d="M835 0c462,0 835,375 835,837 0,462 -374,836 -835,836 -462,0 -835,-374 -835,-836 0,-462 374,-837 835,-837zm591 704c45,-6 82,-38 105,-75l-282 0c-36,1 -73,7 -105,24 -27,14 -49,37 -65,63 -23,38 -54,121 -54,121l-45 123 -124 -332 -98 0 -118 319 -131 -319 -100 0 36 89 1 -1 132 327 115 -1 114 -298 113 298 112 0 99 -249c0,0 17,-46 33,-65 15,-17 39,-23 60,-25 67,-2 133,0 199,-1zm-1011 65l-38 -95 -238 370 102 1 60 -94 189 0 -27 -67 -119 0 73 -114zm892 199l-190 0 -31 76 281 0 83 -208 -157 0 -31 75 68 0 -23 57z"/>
 </g>
</svg>
